<?xml version="1.0" encoding="utf-8"?>
<!-- Generator: Adobe Illustrator 24.1.2, SVG Export Plug-In . SVG Version: 6.00 Build 0)  -->
<svg version="1.1" id="Layer_1" xmlns="http://www.w3.org/2000/svg" xmlns:xlink="http://www.w3.org/1999/xlink" x="0px" y="0px"
	 viewBox="0 0 23.2 22" style="enable-background:new 0 0 23.2 22;" xml:space="preserve">
<path id="shopping-cart-solid" d="M21.3,12.9L23.2,4c0.1-0.5-0.2-1.1-0.7-1.2c-0.1,0-0.1,0-0.2,0H6.4L6,0.8C6,0.4,5.6,0,5.1,0H1
	C0.4,0,0,0.5,0,1v0.7c0,0.6,0.4,1,1,1h2.8l2.8,14.8c-0.7,0.5-1.1,1.2-1.1,2.1c0,1.3,1,2.4,2.3,2.4C9,22,10,20.9,10,19.6
	c0-0.6-0.2-1.3-0.7-1.7h8.4c-0.4,0.5-0.7,1.1-0.7,1.7c-0.1,1.2,0.9,2.3,2.1,2.4c1.2,0.1,2.3-0.9,2.4-2.1c0-0.1,0-0.2,0-0.3
	c0-0.9-0.5-1.7-1.3-2.2l0.2-1c0.1-0.5-0.2-1.1-0.7-1.2c-0.1,0-0.1,0-0.2,0H8.8l-0.3-1.4h11.8C20.8,13.7,21.2,13.4,21.3,12.9z"/>
</svg>
