<?xml version="1.0" encoding="utf-8"?>
<!-- Generator: Adobe Illustrator 24.1.2, SVG Export Plug-In . SVG Version: 6.00 Build 0)  -->
<svg version="1.1" id="Capa_1" xmlns="http://www.w3.org/2000/svg" xmlns:xlink="http://www.w3.org/1999/xlink" x="0px" y="0px"
	 viewBox="0 0 52 52" style="enable-background:new 0 0 52 52;" xml:space="preserve">
<style type="text/css">
	.st0{fill:#FFFFFF;}
</style>
<path d="M26,0C11.7,0,0,11.7,0,26s11.7,26,26,26s26-11.7,26-26S40.3,0,26,0z"/>
<path class="st0" d="M24.1,37.2c-0.8,0.8-1.8,1-2.2,0.6l-9.2-9.6c-0.4-0.4-0.1-1.4,0.7-2.2c0.8-0.8,1.8-1,2.2-0.6l9.2,9.6
	C25.2,35.5,24.9,36.5,24.1,37.2z"/>
<path class="st0" d="M21.6,37.6c-0.8-0.7-0.9-2-0.2-2.8l16.3-18.9c0.7-0.8,2-0.9,2.8-0.2c0.8,0.7,0.9,2,0.2,2.8L24.4,37.4
	C23.7,38.2,22.4,38.3,21.6,37.6z"/>
</svg>
