<?xml version="1.0" encoding="utf-8"?>
<!-- Generator: Adobe Illustrator 24.1.0, SVG Export Plug-In . SVG Version: 6.00 Build 0)  -->
<svg version="1.1" id="Layer_1" xmlns="http://www.w3.org/2000/svg" xmlns:xlink="http://www.w3.org/1999/xlink" x="0px" y="0px"
	 viewBox="0 0 418.2 512" style="enable-background:new 0 0 418.2 512;" xml:space="preserve">
<path d="M416.9,114.4l-11.3-33.9C401.3,67.6,389.2,59,375.6,59h-95V28c0-15.5-12.6-28-28-28h-87c-15.5,0-28,12.6-28,28V59h-95
	c-13.6,0-25.6,8.7-29.9,21.6L1.3,114.4c-2.6,7.7-1.3,16.3,3.5,22.9s12.4,10.5,20.6,10.5h11.8l26,321.6c1.9,23.9,22.2,42.6,46.1,42.6
	h204.9c23.9,0,44.2-18.7,46.1-42.6l26-321.6h6.5c8.1,0,15.8-3.9,20.6-10.5C418.1,130.7,419.4,122.2,416.9,114.4z M167.6,30h83.1v29
	h-83.1V30z M330.4,467c-0.7,8.4-7.8,15-16.2,15H109.3c-8.4,0-15.5-6.6-16.2-15L67.3,147.8h288.9L330.4,467z M31.8,117.8L41.1,90
	c0.2-0.6,0.8-1.1,1.5-1.1h333.1c0.7,0,1.3,0.4,1.5,1.1l9.3,27.8H31.8z"/>
<path d="M282.5,466c0.3,0,0.5,0,0.8,0c7.9,0,14.6-6.2,15-14.2l14.1-270.4c0.4-8.3-5.9-15.3-14.2-15.8c-8.3-0.4-15.3,5.9-15.8,14.2
	l-14.1,270.4C267.9,458.5,274.2,465.5,282.5,466z"/>
<path d="M120.6,451.8c0.4,8,7.1,14.2,15,14.2c0.3,0,0.6,0,0.8,0c8.3-0.4,14.6-7.5,14.2-15.8l-14.8-270.4
	c-0.4-8.3-7.5-14.6-15.8-14.2c-8.3,0.4-14.6,7.5-14.2,15.8L120.6,451.8z"/>
<path d="M209.3,466c8.3,0,15-6.7,15-15V180.6c0-8.3-6.7-15-15-15s-15,6.7-15,15V451C194.3,459.3,201,466,209.3,466z"/>
</svg>
