<?xml version="1.0" encoding="utf-8"?>
<!-- Generator: Adobe Illustrator 24.1.0, SVG Export Plug-In . SVG Version: 6.00 Build 0)  -->
<svg version="1.1" id="instagram" xmlns="http://www.w3.org/2000/svg" xmlns:xlink="http://www.w3.org/1999/xlink" x="0px" y="0px"
	 viewBox="0 0 30.9 30.9" style="enable-background:new 0 0 30.9 30.9;" xml:space="preserve">
<path id="Pfad_30" d="M26.3,0H4.5C2,0,0,2,0,4.5v21.8c0,2.5,2,4.5,4.5,4.5h21.8c2.5,0,4.5-2,4.5-4.5V4.5C30.9,2,28.8,0,26.3,0z
	 M15.5,23.5c-4.5,0-8.1-3.6-8.1-8.1s3.6-8.1,8.1-8.1s8.1,3.6,8.1,8.1c0,0,0,0,0,0C23.6,19.9,20,23.5,15.5,23.5z M24.5,9
	c-1.5,0-2.7-1.2-2.7-2.7s1.2-2.7,2.7-2.7s2.7,1.2,2.7,2.7v0C27.3,7.8,26,9,24.5,9z"/>
<path id="Pfad_31" d="M24.5,5.4c-0.5,0-0.9,0.4-0.9,0.9c0,0.5,0.4,0.9,0.9,0.9c0.5,0,0.9-0.4,0.9-0.9c0,0,0,0,0,0
	C25.4,5.8,25,5.4,24.5,5.4z"/>
<path id="Pfad_32" d="M15.5,9c-3.5,0-6.3,2.8-6.3,6.3s2.8,6.3,6.3,6.3c3.5,0,6.3-2.8,6.3-6.3S19,9,15.5,9L15.5,9z"/>
</svg>
