<?xml version="1.0" encoding="utf-8"?>
<!-- Generator: Adobe Illustrator 24.1.2, SVG Export Plug-In . SVG Version: 6.00 Build 0)  -->
<svg version="1.1" id="logo" xmlns="http://www.w3.org/2000/svg" xmlns:xlink="http://www.w3.org/1999/xlink" x="0px" y="0px"
	 viewBox="0 0 110.1 70.7" style="enable-background:new 0 0 110.1 70.7;" xml:space="preserve">
<style type="text/css">
	.st0{fill:#FFD126;}
	.st1{fill:#006FE2;}
</style>
<g>
	<g id="Gruppe_399" transform="translate(1.024 0.683)">
		<path id="Pfad_698" class="st0" d="M22.9,0.3V8H10.8v4.3h8.7v7.3h-8.7v11.7H1.1v-31H22.9z"/>
		<path id="Pfad_699" class="st0" d="M36.9,24h9.4v7.3H27.2v-31h9.7V24z"/>
		<path id="Pfad_700" class="st0" d="M74.4,0.3L63.3,21.9v9.4h-9.7v-9.4L42.5,0.3L51.9,0l6.4,12.8l5.2-12.4
			C63.5,0.3,74.4,0.3,74.4,0.3z"/>
	</g>
	<g id="Gruppe_400">
		<path id="Pfad_701" class="st1" d="M20.6,0v7.2H9.2v4h8.2v6.9H9.2v11H0.1V0H20.6z"/>
		<path id="Pfad_702" class="st1" d="M34.8,22.2h8.8v6.9H25.7V0h9.1V22.2z"/>
		<path id="Pfad_703" class="st1" d="M71,0L60.5,20.2V29h-9.1v-8.8L41,0h10.4l4.7,10.3L60.7,0H71z"/>
	</g>
	<g id="Gruppe_401" transform="translate(25.043 35.154)">
		<path id="Pfad_704" class="st0" d="M5,6.3v29.1h-9.1V24h-8.7v11.3h-9.1v-29h9.1v10.5h8.7V6.3H5z"/>
		<path id="Pfad_705" class="st0" d="M19.2,6.3v29.1h-9.1V6.3H19.2z"/>
		<path id="Pfad_706" class="st0" d="M47.2,8.6c1.1,1.5,0.5,0.4,0.9,3.6l-5.6,0.7c-0.3-0.6-0.6,0.3-1.3,0c-0.7-0.3-2.5-3.6-3.5-3.6
			c-1.7,0-3.8-0.1-4.8,1.1c-1.5,2-6.8,10.2-3.4,13c0,2.3,3.7,2.5,4.8,3.6c1.1,1.1,3.8,1.3,6,1.3c2.1,0,5.1-3.4,6.4-5.1l-8.1-0.4
			l-0.5-4.1h14.8v9.1c-1.3,2.2-3.1,4.1-5.2,5.5c-2.5,1.6-5.4,2.4-8.4,2.3c-2.7,0.1-5.4-0.6-7.9-1.9c-2.2-1.2-4-3-5.1-5.2
			c-2.4-4.8-2.4-10.5,0-15.4c1.2-2.2,2.9-4,5.1-5.2c2.4-1.3,5.1-1.9,7.8-1.9C42.2,5.8,45.4,6.3,47.2,8.6z"/>
		<path id="Pfad_707" class="st0" d="M85.1,6.3v29.1H76V24h-8.7v11.3h-9.2v-29h9.1v10.5h8.7V6.3H85.1z"/>
	</g>
	<g id="Gruppe_402" transform="translate(23.934 35.154)">
		<path id="Pfad_708" class="st1" d="M3,3.3v29.1h-9.1V21h-8.7v11.3h-9.1v-29h9.1v10.5h8.7V3.3H3z"/>
		<path id="Pfad_709" class="st1" d="M17.2,3.3v29.1H8.1V3.3H17.2z"/>
		<path id="Pfad_710" class="st1" d="M46.5,5.8c2.4,1.8,3.9,4.5,4.3,7.5h-9.6c-0.4-0.6-0.9-1.1-1.5-1.3c-0.8-0.3-1.6-0.5-2.4-0.5
			c-1.5-0.1-3,0.5-4.1,1.7c-1,1.3-1.5,3-1.5,4.7c0,2.3,0.5,4,1.6,5.1c1.3,1.2,3.1,1.8,4.9,1.7c2,0,3.9-0.9,5.1-2.6h-7.2v-6.4h14.8
			v9.1c-1.3,2.2-3.1,4.1-5.2,5.5c-2.5,1.6-5.4,2.4-8.4,2.3c-2.7,0.1-5.4-0.6-7.9-1.9c-2.2-1.2-4-3-5.1-5.2c-2.4-4.8-2.4-10.5,0-15.4
			c1.2-2.2,2.9-4,5.1-5.2C31.8,3.6,34.5,3,37.2,3C40.6,2.9,43.8,3.9,46.5,5.8z"/>
		<path id="Pfad_711" class="st1" d="M83.1,3.3v29.1H74V21h-8.7v11.3h-9.2v-29h9.1v10.5h8.7V3.3H83.1z"/>
	</g>
</g>
</svg>
