<?xml version="1.0" encoding="utf-8"?>
<!-- Generator: Adobe Illustrator 24.1.0, SVG Export Plug-In . SVG Version: 6.00 Build 0)  -->
<svg version="1.1" id="Layer_1" xmlns="http://www.w3.org/2000/svg" xmlns:xlink="http://www.w3.org/1999/xlink" x="0px" y="0px"
	 viewBox="0 0 35.8 29.3" style="enable-background:new 0 0 35.8 29.3;" xml:space="preserve">
<path id="twitter" d="M13.3,29.3c-1.6,0-3.2-0.1-4.7-0.4c-2.3-0.4-4.5-1.2-6.5-2.4L0,25.4l2.3-0.8c2.5-0.8,4-1.3,5.9-2.1
	c-1.9-0.9-3.4-2.6-4.1-4.7l-0.5-1.6l0.4,0.1c-0.4-0.4-0.7-0.8-1-1.2c-0.9-1.3-1.3-2.9-1.3-4.5l0.1-1.4l0.8,0.3C2.4,8.8,2.1,8,2,7.3
	C1.6,5.4,1.9,3.5,2.8,1.8l0.7-1.4l1,1.2c2.9,3.6,7.1,6,11.8,6.6c-0.2-1.3-0.1-2.6,0.4-3.7c0.6-1.4,1.6-2.5,2.8-3.3
	c1.5-0.9,3.2-1.3,5-1.2c1.8,0.1,3.5,0.8,4.9,2c0.6-0.2,1.2-0.4,1.8-0.6c0.4-0.1,0.8-0.3,1.4-0.5l2-0.7L33.3,4c0.1,0,0.2,0,0.3,0
	l2.2-0.1l-1.3,1.8c-0.1,0.1-0.1,0.1-0.1,0.2c-0.1,0.2-0.2,0.4-2,2.7c-0.5,0.6-0.7,1.4-0.6,2.2c0.2,2.8-0.2,5.6-1.1,8.3
	c-0.8,2.2-2.2,4.2-3.9,5.8c-2.3,2-5.2,3.4-8.2,4C16.8,29.1,15.1,29.3,13.3,29.3z"/>
</svg>
