<?xml version="1.0" encoding="utf-8"?>
<!-- Generator: Adobe Illustrator 24.1.0, SVG Export Plug-In . SVG Version: 6.00 Build 0)  -->
<svg version="1.1" id="Layer_1" xmlns="http://www.w3.org/2000/svg" xmlns:xlink="http://www.w3.org/1999/xlink" x="0px" y="0px"
	 viewBox="0 0 450 512" style="enable-background:new 0 0 450 512;" xml:space="preserve">
<g>
	<g>
		<path d="M225,0C150.6,0,90,60.6,90,135s60.6,135,135,135s135-60.6,135-135S299.4,0,225,0z"/>
	</g>
</g>
<g>
	<g>
		<path d="M393,358.2c-37-37.5-86-58.2-138-58.2h-60c-52,0-101,20.7-138,58.2C20.3,395.5,0,444.8,0,497c0,8.3,6.7,15,15,15h420
			c8.3,0,15-6.7,15-15C450,444.8,429.7,395.5,393,358.2z"/>
	</g>
</g>
</svg>
