<svg xmlns="http://www.w3.org/2000/svg" width="358.346" height="414.086" viewBox="0 0 358.346 414.086">
  <g id="biker_sell" transform="matrix(0.998, 0.07, -0.07, 0.998, 20.297, -65.771)">
    <g id="Gruppe_174" data-name="Gruppe 174">
      <g id="Gruppe_173" data-name="Gruppe 173">
        <path id="Pfad_205" data-name="Pfad 205" d="M12,303.3a5.274,5.274,0,0,0,.3-1.2c.1-2,.2-4.1.3-6.1.1-1.3.1-2.7.3-4,.3-2.1.8-4.2,1.3-6.3.6-2.3,1.2-4.6,2-6.8a48.95,48.95,0,0,1,2.7-5.7,36.006,36.006,0,0,1,2-3.9c1.3-2,2.7-3.9,4.1-5.9a31.121,31.121,0,0,1,2.3-2.8,71.356,71.356,0,0,1,5.5-5.5,79.494,79.494,0,0,1,8.4-5.9,46.775,46.775,0,0,1,6.4-3,57.783,57.783,0,0,1,7-2.4,55.781,55.781,0,0,1,14.7-1.7,61.744,61.744,0,0,1,12.1,1.6,53.014,53.014,0,0,1,10.4,3.5,63.32,63.32,0,0,1,6.8,3.6,34.539,34.539,0,0,1,4.1,2.5c1.7,1.2,3.4,2.5,5,3.8,1.5,1.2,2.9,2.5,4.3,3.7.5.5.9.4,1.4,0a27.134,27.134,0,0,0,6-6.2,2.777,2.777,0,0,0,.3-1.8,2.373,2.373,0,0,1,1.7-2.5,2.7,2.7,0,0,0,.8-.7c1.2-1.7,2.4-3.3,3.7-5,1.6-2.2,3.2-4.4,4.8-6.5a3.647,3.647,0,0,0,1.1-3c-.2-1.2.8-2.1,2.1-2.3.6-.1.8-.3.9-.8a2.463,2.463,0,0,1,2.3-2.2c.5-.1.9-.5.4-.9-1-.9-1.9-2.1-3.4-2.3a2.437,2.437,0,0,0-1.2,0c-1.2.1-1.6,0-2.1-1.1a2.024,2.024,0,0,0-1.4-1.3c-1.3-.3-1.8-2.5-1.5-3.8a13.9,13.9,0,0,0,.6-1.9,1.337,1.337,0,0,0-.1-.9c-2.1-2.7-1.1-4.2.7-6.2a1.209,1.209,0,0,0,.3-1c-.4-1.7-.9-3.3-1.3-5-.2-1.1-.2-2.1.8-2.8a1.988,1.988,0,0,0,.8-2.3c-.5-1.7.1-2.4,1.7-2.9.8-.3,1.6-.8,2.4-1.1,1.1-.3,2.3-.5,3.5-.7,1.4-.2,2.9-.4,4.3-.7a1.8,1.8,0,0,0,.9-.6,3.56,3.56,0,0,1,2.9-1.1,2.044,2.044,0,0,0,2-.8,6.69,6.69,0,0,1,1.9-1.4,24.429,24.429,0,0,1,2.4-1,6.567,6.567,0,0,1,3.9-.8c.8.1,1.5.1,1.8-1,.1-.4.8-.7,1.2-1.1l.6-.6c.7-.6,1.5-1.2,2.2-1.8.3-.3.8-.5,1-.9a4.384,4.384,0,0,1,3.3-2.3c.6-.1,1.1-.3,1.1-.9,0-1.3.9-1.8,1.8-2.5a10.075,10.075,0,0,0,2.1-2c1.3-1.7,2.4-3.5,3.6-5.2a41.694,41.694,0,0,1,3-4,3.322,3.322,0,0,0,.7-2.1,7.855,7.855,0,0,1,1.9-4.5,1.943,1.943,0,0,0,.3-1.3c.1-.7,0-1.4.1-2,.4-2.1,1.7-3.9,2.5-5.9.9-2.4,2.7-4.3,3-6.9a6.752,6.752,0,0,0,.2-1.4,8.054,8.054,0,0,1,3.3-6.5c1.1-.8,2.3-1.6,3.4-2.5.2-.1.4-.5.3-.6a13.024,13.024,0,0,0-1.5-3.4,17.04,17.04,0,0,0-2.6-3.4c-1.3-1.4-1.9-3.1-2.9-4.6a16.18,16.18,0,0,1-1-1.8c-.2-.2-.4-.5-.7-.6-2-.7-2.3-1.3-2.2-3.4a17.262,17.262,0,0,0-.5-4.5,2.457,2.457,0,0,0-1.6-1.7c-.4-.2-.6-.7-.9-1.1a10.1,10.1,0,0,0-1.6-1.3,1.382,1.382,0,0,1-.4-1.6,15.566,15.566,0,0,0-.3-7.4c-1.4.4-1.9-.7-2.6-1.5-.8-1-1.6-2.1-1.3-3.5s.7-2.8,1.1-4.4a8.709,8.709,0,0,0-1.9-.5c-.6,0-.8,0-.7-.7.1-.4-.2-.9-.4-1.3a3.515,3.515,0,0,0-.7-.9,4.068,4.068,0,0,1,2.6-3.4c.2-.1.5.1.8.1-.2.3-.4.5-.5.7a1.454,1.454,0,0,0,2.2-.5,2.092,2.092,0,0,0-.4-.6c1.1-.1,1-.3,1.1-1.3a12.8,12.8,0,0,1,.9-3.2c0-.1.3-.1.4-.1a2.9,2.9,0,0,0,2.9-1.5,3.8,3.8,0,0,1,3.7-1.9c.3,0,.8.3.8.5a3.809,3.809,0,0,1-.3,1c-.1.3-.2.5-.3.8s-.2.6-.3,1a.349.349,0,0,1,.2.1c1.9-1,3.9-1.7,5.6-3.3a7.523,7.523,0,0,1,4.9-1.9,8.584,8.584,0,0,1,1.7.3,12.2,12.2,0,0,0,.7-1.7c.1,0,.2.1.3.1a6.151,6.151,0,0,0,.1,1.3,3.385,3.385,0,0,0,.8-.3c.7-1.1,1.2-2.3,1.9-3.4.1-.2.5-.4.7-.6a12.005,12.005,0,0,1,5-2.6,1.95,1.95,0,0,1,1.3.1c.3.2.5.9.4,1-.5.4-.7,1-1.4,1.3a9.1,9.1,0,0,0-2.7,1.8c-.2.1-.2.5-.3.7l.2.2,2.1-1.5c.1,0,.2.1.3.1.6.5,1.7.9.1,1.5-.1,0-.1.3-.1.4,1.4.3,1.4.3.7,1.1.3.9,1,1.1,1.9,1a13.334,13.334,0,0,1,2,0,1.3,1.3,0,0,1,1.1,1.6c.8.4,1.6.9,2.4,1.2a6.448,6.448,0,0,0,2,.3,10.442,10.442,0,0,1,4.9,1.2,8.06,8.06,0,0,1,2.5,3c-.1.1-.1.2-.2.2a12.13,12.13,0,0,0-1.4-.5c.8,1.4,1.5,2.8,2.3,4.2a.138.138,0,0,1,0,.2c-.7.8.1,1.4.3,2.1.3,1,.7,2.1.9,3.1.3,1.5.5,3.1.7,4.7.2,1.1.5,2.2.6,3.3a2.25,2.25,0,0,1-.1,1.4,3.516,3.516,0,0,0,.3,3c.1.2.8.6.9.5.7-.4,1.1,0,1.6.4a2.558,2.558,0,0,0,.1,3,4.2,4.2,0,0,1,.1,2.5c0,.7-.2,1.5-.2,2.2.1,0,.2.1.3.1.6-.3,1.1-.7,1.7-1,1-.7,2-.4,3.1,0a3.167,3.167,0,0,0,1.6.4,9.458,9.458,0,0,1,5.2,1.4,7.44,7.44,0,0,0,4.1,1.1,18.564,18.564,0,0,1,5.2,1.1c2.1.7,4.2,1.3,6.3,2.1,1.9.7,3.6,1.7,3.8,4.2.2,2,1.7,3.4,2.9,4.8a39.184,39.184,0,0,1,2.5,3.2c.9,1.2,1.8,2.5,2.6,3.8.2.2.3.5.5.7.5,1.2.7,1.2,1.7.5,1.9-1.4,3.7-2.9,5.6-4.2,1.8-1.1,3.7-2,5.6-3,3.4-1.7,7.1-1.7,10.8-1.7,1.9,0,3.8,0,5.7.1a13.732,13.732,0,0,1,2.8.5c2.1.7,4.2,1.3,6.3,2.1,1.3.5,2.6,1.3,3.9,1.9a17.61,17.61,0,0,1,2.3,1.4c.3.2.5.7.8.9a18.822,18.822,0,0,1,3.5,4.5c.4.6,1,1.2,1.4,1.8.6,1,1.1,2.1,1.7,3.2a10.837,10.837,0,0,0,.8,1.9,6.9,6.9,0,0,0,1.8,1.6,33.1,33.1,0,0,0,3.3,1.5c.1.1.3,0,.8-.1-1-1.1-1.8-2.1-2.6-3.1-.7-.8-1.3-1.6-2-2.4a.773.773,0,0,1,.3-1.2c.6-.3,1.2-.8,1.8-.1a22.317,22.317,0,0,1,4.2,5.5c.4.7,1.2,1.2,1.6,2s1.2.8,1.8,1.2a.6.6,0,0,0,.4.1c.5-.2.9-.3,1.2.2a1.248,1.248,0,0,1-.2,1.7c-.5.4-.9,1.1-1.4,1.6a2.134,2.134,0,0,1-1.2.7,6.73,6.73,0,0,0-3.4,1.6,11.234,11.234,0,0,0-3.6,3.9,5.662,5.662,0,0,1-2.4,1.9,13.75,13.75,0,0,1-7.2,1.2,17.878,17.878,0,0,0-6.1-.2c-1.5.3-3.1.6-4.6.9-1.7.3-3.5.7-5.2,1a4.277,4.277,0,0,0-2.7,3.1c-.3,1.4-.7,1.9-2.1,2a2.444,2.444,0,0,0-2.4,1.4,13.15,13.15,0,0,1-2.5,2.2c-.2.2-.4.6-.3.8a30.491,30.491,0,0,0,2.3,4.4c.8,1,2,1.6,2.9,2.6a7.928,7.928,0,0,1,2.4,5.4c0,.2-.1.5-.1.7a3.83,3.83,0,0,0,.1,3.3,4.99,4.99,0,0,1,.5,2.1c.2.7.2,1.5.4,2.2a1.47,1.47,0,0,0,.5.6c2,1,2.5,2.1,2.2,4.2a17.632,17.632,0,0,0,0,2.3,7.388,7.388,0,0,0,1.2,4.3,2.714,2.714,0,0,1,.2,3,12.236,12.236,0,0,0-1,2.4,8.2,8.2,0,0,0,.2,2.2c.2,1.3.4,2.7.5,4,.1,1.7.1,3.4.1,5.1a20.808,20.808,0,0,1-2.3,10.1,16.064,16.064,0,0,0-1.6,3.9,5.445,5.445,0,0,1-2,3.6c-1.1,1-1.8,2.3-2.9,3.3a41.361,41.361,0,0,1-4.6,3.7c-1.2.8-2.5,1.4-3.7,2.2a5.383,5.383,0,0,0-.9,1.2,2.336,2.336,0,0,1-.7.7,43.913,43.913,0,0,1-5,3.4,29.4,29.4,0,0,1-5.1,2.3,67.886,67.886,0,0,1-11.6,2.9c-1.8.3-3.6.5-5.5.8-1.3.2-2.5.7-3.8.9-1.5.2-3.1.2-4.6.5-2.4.5-4.9,1.2-7.3,1.9-3.2.9-6.4,2.1-9.8,2.5a28.579,28.579,0,0,0-4.2,1,1.272,1.272,0,0,0-.7.9,47.793,47.793,0,0,1-2.9,11.1q-1.2,3.15-2.1,6.3a1.971,1.971,0,0,0,.3,1.5,52.6,52.6,0,0,1,5.4,12.1c.4,1.5.7,3.1,1.1,4.6a7.579,7.579,0,0,0,.6,1.6c.3,1,.6,1.9.9,2.9a1.276,1.276,0,0,0,.5.7.778.778,0,0,0,.8-.2c.7-1.2,1.7-2.2,2.1-3.6a5.722,5.722,0,0,1,3.4-3.9,5.5,5.5,0,0,0,1.8-1.9c1.6-2.2,3.2-4.4,4.8-6.7.8-1.1,1.5-2.1,2.2-3.2a.629.629,0,0,0,0-.6c-.6-1.6-1.2-3.1-1.8-4.7-.1-.2-.1-.4-.3-.5a1.377,1.377,0,0,1-.4-1.8c.4-1,.8-1.2,1.7-.6.3.2.6.3.9.5.2.1.5.2.5.3,0,.9.7.8,1.3,1a2.725,2.725,0,0,1,1.2.6,3.418,3.418,0,0,0,3.1,1.4c1.9-.1,1.7,0,1.4-1.8a6.558,6.558,0,0,0-2.8-4.4,5.238,5.238,0,0,0-3.6-1.2,6.478,6.478,0,0,1-2-.2c-1.4-.5-2.7,0-4,.4-.9.2-1,1-1.1,1.8v.9a31.814,31.814,0,0,1-2.7-1.7c-1.6-1.2-3.2-2.4-4.9-3.5a3.938,3.938,0,0,1-1.6-3.3,3.809,3.809,0,0,1,.3-1c1.6-3.7,4.6-5.2,8.6-4.4a25.542,25.542,0,0,1,7.6,2.7c3.8,1.9,7.5,3.7,11.3,5.5a2.117,2.117,0,0,0,.7.3c.8.1,1,.7.8,1.4a1.046,1.046,0,0,0,.5,1.3c.5.3.9.7,1.4,1a1.223,1.223,0,0,1,.2,2c-.5.6-.6,1.5-1.1,2.1a17.271,17.271,0,0,1-2.8,2.6c-.5.4-1,.5-1,1.3a1.76,1.76,0,0,1-.6,1.3,3.3,3.3,0,0,0-1,3c.1,1,0,1-.7,1.4a4.258,4.258,0,0,1-1.4,3.7,1.421,1.421,0,0,1-.6.2c-.7.1-1.3.2-2,.3h-1.8c-.4,0-.9,0-1,.3-1.8,2.4-3.6,4.9-5.4,7.3a.823.823,0,0,0,.1,1.2c.7.9,1.7,1.8,1,3.1a9.994,9.994,0,0,1-2.3,2.7c-.4.3-1.4.1-2-.1-.6-.3-1-.2-1.3.4a4.485,4.485,0,0,1-1,1.3c-.6.5-.4.9,0,1.3a7.006,7.006,0,0,0,1,.8c2.3,1.2,3.7,3.2,5,5.4.2.3.5.7.7,1a1.506,1.506,0,0,1,0,1.9c-.4.5-.2.8.1,1.2,1.6,2,3.3,3.9,4.9,5.9,2.5,3,5,6,7.4,9.1.6.7.9,1,1.9.6a35.259,35.259,0,0,1,9.1-2,55.677,55.677,0,0,1,12.9.2,41.767,41.767,0,0,1,7,1.6,42.569,42.569,0,0,1,6.3,2.2,73.735,73.735,0,0,1,8.7,4.8c1.7,1.1,3.2,2.5,4.8,3.7a36,36,0,0,1,5.3,5c.8.8,1.6,1.5,2.4,2.3.6.7,1.1,1.5,1.7,2.2a35.028,35.028,0,0,1,2.4,3c.5.7.9,1.6,1.4,2.4a41.908,41.908,0,0,1,4.1,7.5c.2.4.7.8.8,1.2.6,1.6,1.1,3.3,1.7,4.9.2.4.4.8.6,1.3a13.893,13.893,0,0,1,.6,1.9c.3,1.2.5,2.5.9,3.8a12.474,12.474,0,0,1,1,2.7c.4,2.1.6,4.2.9,6.3a18.411,18.411,0,0,1,.3,3.3,36.221,36.221,0,0,0,.2,5.7,43.385,43.385,0,0,1,0,5.1v.2c-.8,1.1-.2,2.3-.3,3.5a5.845,5.845,0,0,1-1.3,3.8l-.1.1c-.3,1.3-.6,2.7-.9,4a20.949,20.949,0,0,1-.8,2.3c0,.1-.1.1-.2.2-.4,1.3-.7,2.6-1.2,3.8a37.783,37.783,0,0,1-1.7,3.5c-.4.8-.7,1.5-1.1,2.3-.3.6-.8,1.2-1.1,1.9a17.754,17.754,0,0,1-3.9,5.1,27.248,27.248,0,0,0-2.3,2.5,12.933,12.933,0,0,1-3.7,3.3c-2.9,1.9-5.9,3.6-8.7,5.5a15.739,15.739,0,0,1-5.1,1.9c-.4.1-.8.4-1.3.5-2.3.6-4.5,1.2-6.8,1.7a43.53,43.53,0,0,1-10.2.9,39.06,39.06,0,0,1-4.8-.5c-.1,0-.2-.1-.3-.1-1.9.2-3.5-.9-5.3-1.4-2.2-.7-4.3-1.3-6.5-2a11.11,11.11,0,0,1-1.6-.7c-2-1-4.1-2.1-6.1-3.1-.6-.3-1.2-.8-1.9-1.1a9.143,9.143,0,0,1-1.4-.7c-.7-.5-1.3-1-1.9-1.5-.9-.8-1.9-1.6-2.8-2.4a15.935,15.935,0,0,1-1.3-1.3c-1.4-1.4-2.9-2.6-4.2-4.1-1.2-1.3-2.2-2.8-3.3-4.2-.5-.7-1.2-1.2-1.7-1.9-.8-1.2-1.5-2.5-2.2-3.7-.4-.7-1-1.3-1.4-2-.6-1-1-2.2-1.5-3.2-.5-.9-.7-2-1.6-2.8-.5-.4-.6-1.2-.8-1.9-.4-1.3-.8-2.7-1.2-4a4.7,4.7,0,0,0-.6-.9,3.508,3.508,0,0,1-.5-.8c-.3-1.7-.6-3.3-1-5a1.072,1.072,0,0,0-.2-.6,3.008,3.008,0,0,1-.8-2.2c-.2-1.5-.2-3-.4-4.5a11.5,11.5,0,0,0-.6-1.7.9.9,0,0,1-.1-.5c0-1.6.1-3.2.2-4.9a.6.6,0,0,0-.1-.4,3.117,3.117,0,0,1,0-3.1c.3-.6-.4-1.8-1-1.7-1.3.2-1.7-1-2.7-1.3-.1,0-.1-.5-.1-.7,0-.1.4-.2.6-.2.9.4,2-.1,2.7.7.1.1.5,0,.5-.1.1-.3.3-.7.2-.9a2.87,2.87,0,0,1,.2-2.7,3.749,3.749,0,0,0,.1-1.1,10.267,10.267,0,0,1,.5-2.4,1.2,1.2,0,0,0-1.4-1.6,8.065,8.065,0,0,0-3.9,1.7,1.493,1.493,0,0,1-1,.3,3.852,3.852,0,0,0-3,1.2c-.3.4-1.2.4-1.9.6-.2.1-.5,0-.7,0-.6.2-.8-.1-1-.7a21.159,21.159,0,0,0-1.1-2.1c-.3-.5-.6-1-.9-1.6-1.8.6-3.8,1.4-5.7,2.1v.3c.4.1.8.5,1.1.4.9-.3,1.3.3,1.9.8-.9,1.5-1.4,1.6-2.6.5a2.016,2.016,0,0,0-1.1-.3c-.3-.1-.8.1-1-.1a3.437,3.437,0,0,0-2.7-.9,5.483,5.483,0,0,1-3.2-1.4c-.1,0-.1-.2-.2-.2-1.6-.1-2.7-1.5-4.3-1.6-.4,0-.8-.4-1.2-.6-.5-.3-1-.5-1.5-.8a7.635,7.635,0,0,1-1.1-.8,8.278,8.278,0,0,0-1.5-1.1,1.532,1.532,0,0,1-1.1-1.1,1.765,1.765,0,0,0-.8-.9,2.622,2.622,0,0,1-1.3-1.6,2.836,2.836,0,0,0-.8-1.1c-.1-.1-.2-.1-.3-.2-.7-1.4-1.7-2.6-2-4.2a3.946,3.946,0,0,0-.6-1.5,2.026,2.026,0,0,1-.4-1.5,2.7,2.7,0,0,0-.3-1.5,1.844,1.844,0,0,1-.1-1.9,1.72,1.72,0,0,0-.1-1.4,1.583,1.583,0,0,1-.1-1.5,4.4,4.4,0,0,0,.2-1.6,2.276,2.276,0,0,1,.4-1.6,2.092,2.092,0,0,0,.3-1.4c0-.6,0-1,.5-1.4.9-.7.7-1.4-.3-1.8l-9-3a1.7,1.7,0,0,0-.7-.1c-1.6-.2-2.3-.7-2.7-2.3-.3-1-.7-2,.1-2.9.1-.1-.1-.6-.3-.6-.7-.2-.8-.7-.9-1.4a8.955,8.955,0,0,0-.8-2.3,10.929,10.929,0,0,0-.8-1.5,1.275,1.275,0,0,0-.7-.5,72.817,72.817,0,0,1-7.7-3.1c-2.5-1.3-4.8-2.9-6.1-5.6a6.9,6.9,0,0,1-.3-4.7c0-.2.4-.4.6-.6a10.272,10.272,0,0,1,7.8-2.7c1.8.2,3.5.5,5.3.7,1.6.2,3.2.5,4.8.7a1.854,1.854,0,0,0,.7-.2s0-.4-.1-.5c-2.6-3.9-5.2-7.9-7.8-11.8l-5.4-8.1c-1.5-2.3-3-4.6-4.5-6.8-1.9-2.8-3.7-5.7-5.6-8.6-1.2-1.8-2.5-3.5-3.7-5.3-1.1-1.6-2.1-3.3-3.2-5-.3-.5-1-.8-1.4-1.2-.9-1.2-1.6-2.4-2.5-3.6-1.3-2-2.7-4-4-6-.3-.4-.6-.5-.8.1a2.977,2.977,0,0,1-2.7,2.3c-.3,0-.7.5-.8.9-.7,2.1-1.3,4.2-2.1,6.3-.4,1-1.1,1.9-1.6,2.9-.2.3-.3.7-.6,1.2.3.1.6.1.8.3.6.3.9.8.5,1.3a2.737,2.737,0,0,0,0,3.6,25.21,25.21,0,0,1,2.4,4.2c.9,2.5,2.6,4.7,3.1,7.5.2,1.3,1.2,2.6,1.4,3.9.5,2.5,1.7,4.8,1.7,7.5a17.589,17.589,0,0,0,.8,3.7,2.92,2.92,0,0,1,.2.9c.1,1.6.3,3.2.4,4.9a43.413,43.413,0,0,1,.1,5.1c-.1,2.5-.2,5-.4,7.5-.1,1.3-.5,2.5-.7,3.8a10.04,10.04,0,0,1-.4,2.4c-.7,2.3-1.5,4.6-2.2,7a19.451,19.451,0,0,1-.8,2.2c-1,2.2-1.8,4.4-3,6.5-1.2,2.2-2.7,4.2-4,6.3a36.173,36.173,0,0,1-2.2,3.2c-1.6,1.8-3.3,3.6-4.9,5.3a41.067,41.067,0,0,1-3,2.9,50.948,50.948,0,0,1-15.2,8.7,45.924,45.924,0,0,1-9.5,2.5,81.4,81.4,0,0,1-8.5.8c-3.2.1-6.4,0-9.5-.1a40.364,40.364,0,0,1-6.9-.7,31.774,31.774,0,0,1-5.7-1.9,52.732,52.732,0,0,0-4.9-2.2c-1.8-.5-3.1-1.8-4.7-2.7a36.468,36.468,0,0,1-4.3-3.5,39.755,39.755,0,0,1-3.3-2.4c-2.2-1.9-4.3-3.9-6.5-5.8-.8-.7-1.9-1.2-2.7-2a17.909,17.909,0,0,1-2-2.8,13.029,13.029,0,0,0-1-1.5c-.1-.2-.4-.3-.5-.5-1.5-2.2-2.9-4.3-4.3-6.5-.7-1.1-1.1-2.3-1.7-3.4-.2-.5-.6-.9-.8-1.4-1-2.2-2-4.5-3-6.7a24.652,24.652,0,0,1-1.8-5.2c-.5-2.8-1.8-5.4-1.9-8.3a21.689,21.689,0,0,0-.7-3.5c-.1-.7-.1-1.3-.2-2-.1-1.5-.2-2.9-.3-4.4a.758.758,0,0,0-.2-.4A3.337,3.337,0,0,0,12,303.3Zm47.3,11.1c.7-.4,1.4-.7,2-1.1,1.6-1.1,2.2-2.9,3.4-4.3.1-.1.1-.4.2-.6.1-.7,0-1.7.4-2.1.8-.8.5-1.8.6-2.6A6.726,6.726,0,0,0,67,303c.3-.2.5-.5.8-.6l2.1-1.2c0-.1.1-.2.1-.3a3.553,3.553,0,0,1-.9-.4c0-.1.1-.2.1-.3h1c1.3.1,2.2.2,3.1-1.4a.663.663,0,0,1,.7-.2c.5.6,1,.2,1.5,0a2.485,2.485,0,0,1,.8-.1,2.939,2.939,0,0,0,2.7-.6,2.768,2.768,0,0,1,.8-.5c0,.4.1.6.1.8-.5.1-.8.1-1.3.2.8.8,1.4.3,2,0,1.8-1,3.8-1.6,4.8-3.6a8.339,8.339,0,0,0,.4-1.2c.4-.4,1-.9,1.5-1.4,1.3-1.2,1.6-3.2,3.2-4.2a.31.31,0,0,1,.1-.2c1.4-1.8,2.7-3.6,4.1-5.4.9-1.3,1.9-2.5,2.8-3.8a3.81,3.81,0,0,0,.3-1q1.8-2.25,3.9-4.5c.4-.4.3-.6-.1-.9a31.968,31.968,0,0,0-2.7-2.5c-.7-.6-1.4-1.7-2.8-1,.4-1.4-.6-1.6-1.3-2.1-1-.7-2.1-1.3-3.2-2-1.4-.9-1.4-.9-2.6,0h-.2c0-.3-.1-.6,0-.8.3-.6-.1-.8-.5-1L84.1,261c-1.2-.5-1.3-.4-2.4.2-.1-.2-.1-.5-.2-.7s-.3-.6-.4-.6c-1.9-.5-3.8-.9-5.7-1.3a.768.768,0,0,0-1,.7c0,.2-.2.4-.4.7a1.1,1.1,0,0,0-.2-.4c.1-1.3,0-1.3-1.3-1.4-1.2-.1-2.5-.2-3.7-.2-1.3,0-1.3,0-1.4,1.3,0,.1-.1.2-.2.4-.2-.3-.5-.5-.5-.7-.2-.9-.8-1-1.5-1-1.7.2-3.5.5-5.2.7-.8.1-1.1.5-.7,1.3a1.268,1.268,0,0,1,.1.6c-.1.1-.2.1-.2.2-.2-.3-.6-.5-.7-.8a.8.8,0,0,0-1-.6c-1.6.5-3.2,1.1-4.8,1.7-.3.1-.4.5-.7.8-.2.2-.4.4-.6.4a7.772,7.772,0,0,0-1.6.2c-1.3.8-2.6,1.6-3.9,2.5-1.1.8-1,.8-.4,1.9v.4a1.077,1.077,0,0,1-.8-.2c-.5-.6-1-.4-1.4.1-1,1-2,1.9-3,2.9a4.58,4.58,0,0,0-.7,1.4c-.4.3-1,.5-1.3,1-1,1.3-1.9,2.6-2.8,3.9-.6.8-.9,1.6.2,2.2v.2c-1.4-.3-1.5-.2-2.3,1.2l-1.8,3.9c-.3.7-.7,1.3.5,1.9-1.1-.1-1.4.5-1.6,1.2-.4,1.7-.9,3.3-1.2,5-.3,1.3-.2,1.4.6,2.3-1,.1-1.2.7-1.3,1.5l-.3,4.5c-.1.7,0,1.3.7,1.3-.2.6-.7,1.1-.7,1.7a23.834,23.834,0,0,0,.4,4.6c.2.9-.3,2.3,1.6,2.5-1.2.5-1,1.2-.8,2a12.547,12.547,0,0,1,.7,2.6,19.369,19.369,0,0,0,2.3,7.4,30.9,30.9,0,0,1,1.4,3.2c.3.6.9,1.8,1.3,2.7.7,1.3,1.4,2.6,2.2,3.8a17.967,17.967,0,0,0,2.4,3.3c1.3,1.5,2.5,3.1,3.8,4.6.4.4.8.5,1.2,0,.2-.3.5-.6.7-.9a1.689,1.689,0,0,1-.3,1c-.2.6-.6,1.2.1,1.7,1.7,1.5,3.4,2.9,5,4.3.5.4,1.6,1.3,2.1,1.6,1.6,1,3.2,1.9,4.9,2.9.5.3,2.5,1.3,3,1.5,1.6.6,3.1,1.2,4.7,1.8a21.278,21.278,0,0,0,2.7.8c1.4.3,2.9.6,4.3.9,1,.2,2.8.4,3.4.5a61.83,61.83,0,0,0,7.8-.2c1.8-.3,3.6-.6,5.3-.9a17.069,17.069,0,0,0,2.6-.7c1.6-.6,3.2-1.3,4.8-2a13.923,13.923,0,0,0,2.5-1.4l4.2-3a21.652,21.652,0,0,0,1.9-1.7c1.3-1.3,2.6-2.7,3.9-4.1a16.822,16.822,0,0,0,1.8-2.3c.7-1,1.3-2.1,2-3.1a14.757,14.757,0,0,0,1.7-3.3c.6-1.4,1.1-2.9,1.8-4.2a25.329,25.329,0,0,0,1.2-3.6c.3-1.3.6-2.6,1-3.9a28.631,28.631,0,0,0,.6-4.6c.1-1.5.2-3,.2-4.5,0-.7-.2-2.9-.2-3.4-.1-1.3-.2-2.6-.4-3.8a47.981,47.981,0,0,0-.8-4.8,34.52,34.52,0,0,0-1.2-4.3c-.2-.5-.6-1-.8-1.4a4.869,4.869,0,0,0-.1-1.2c-.5-1.4-1.1-2.7-1.6-4a26.281,26.281,0,0,0-2-3.8c-.4-.5-.7-.1-1,.2a5.5,5.5,0,0,1-.7.9c-1.3,1.3-2.1,3.1-3.3,4.5-2.3,2.6-4.2,5.5-6.3,8.2-.7.9-1.4,1.7-1.2,3-.9-.2-1.4.3-1.8,1-.5.7-.9,1.5-1.5,2.2-1.2,1.5-2.2,3.1-3.4,4.7-.8,1-1.3,2.5-3,2.4-.1,0-.2.2-.4.3-1-1.7-2.7-.6-4-1-.3-.1-.8,0-1.1-.3-.5-.4-1-.6-1.5,0a3.46,3.46,0,0,1-1.1,1c-.6.4-1,.8-.9,1.4-.6.6-1.1,1.2-1.6,1.7-.7.7.2,1.4.1,2.1-.7-.8-.7-.8-1.6-.1a2.11,2.11,0,0,1-2.5.6c-.2-.1-.6,0-.9,0-.1-.9-1.8-2-2.9-1.8-.1-1-1-1.1-1.6-1.5a2.55,2.55,0,0,0-1.5,0c-1,.3-1.9.6-2.9,1a7.571,7.571,0,0,1,1.8-.9.987.987,0,0,0,.7-1.4,1.053,1.053,0,0,0-1.3-.7c-1.2.2-2.5.4-3.7.7a6.529,6.529,0,0,0-1.7.8c-.4-.7-.7.3-1.1.3A.894.894,0,0,0,59.3,314.4Zm179.9,60.2c-1.1.9-1.1,1.5.1,2.4a25.334,25.334,0,0,0,2.7,1.8c4,2.3,8.1,4.6,12.2,6.9a6.438,6.438,0,0,0,2.7,1.2,5.594,5.594,0,0,1,2.6.7c.8.4,1,.7.6,1.5a2.126,2.126,0,0,0-.1,1.9c.2.4.5.9.7,1.3a2.746,2.746,0,0,1-.5,3.1.778.778,0,0,1-.8.2,4.135,4.135,0,0,1-3.1-1.6c-.1-.2-.5-.3-.7-.5-.2-.1-.5-.3-.5-.4a1.945,1.945,0,0,0-1.5-1.4,1.381,1.381,0,0,1-.4-.3,3.356,3.356,0,0,0-2.9-1.6c-.1,0-.3-.2-.4-.3-.2-.2-.4-.5-.6-.6-3.6-2.2-7.3-4.3-10.9-6.5-.7-.4-1.2-.3-1.2.6,0,.8.2,1.7.2,2.5a.367.367,0,0,1-.1.3c-.1.6-.2,1.1-.3,1.7-.1.5.2.7.7.8a5.637,5.637,0,0,1,1.2.4,5.637,5.637,0,0,0,1.2.4,1.472,1.472,0,0,1,1.6.9c-.2.2-.6.3-.7.5-.2.9-.6.6-1.3.4a2.539,2.539,0,0,0-1.9.2c-.3.1-.4.8-.4,1.1,0,1,.2,2,.3,3,.1.9.5,1.7.6,2.7a12.512,12.512,0,0,0,.8,3.2c.2.8.8,2.7.9,3.4.3,1.9,1.5,3.5,1.9,5.4a10.657,10.657,0,0,0,1.2,2.7c.2.4.7.7,1,1a9.364,9.364,0,0,0,.4,1.6,12.294,12.294,0,0,0,1.4,2.5,9.172,9.172,0,0,1,1.3,2.1,10.4,10.4,0,0,0,2.4,3.1c.4.3,1.5,1.8,2.1,2.3s1.1,1,1.6,1.5,1,1.1,1.6.9a7.473,7.473,0,0,0,1.1,1.3c.5.4,1.1.8,1.6,1.2,1.2,1,1.2,1,2.5.1-.7,1.6.4,1.9,1.3,2.4s1.5,1.7,2.5.9c.4.4.6.9,1,1.1,1,.5,2,1,3,1.4,1.2.5,1.2.5,2-.5,0,1.3,0,1.3,1.3,1.7a10.374,10.374,0,0,1,1,.4c1.4.5,1.4.5,2.3-.7.1.7,0,1.4.9,1.5a18.1,18.1,0,0,0,2.3.3c.7,0,1.6-.3,2.2,0a6.547,6.547,0,0,0,3.1.1c.8-.1,1.6,0,1.6-1.4.5,1.6,1.7,1.3,2.7,1.3a5.276,5.276,0,0,0,1.2-.3c1.5-.3,1.5-.3,1.6-1.9,0-.1.1-.1.2-.2.1.1.3.2.3.3.3.6.7.9,1.4.6,1.2-.5,2.4-.9,3.6-1.3a3.128,3.128,0,0,0,1-.5,5.412,5.412,0,0,0,3.3-2.8,3.384,3.384,0,0,0,3.6-3c1.3.4,1.9-.8,2.7-1.4.8-.7,1.6-1.6.8-2.9h.3a7.017,7.017,0,0,0,.9.6l1.5-2.1c.5-.7,1-1.4.3-2.3.8.5,1.2.2,1.5-.5.4-.9.9-1.7,1.2-2.6a3.644,3.644,0,0,0,.2-1.4,4.943,4.943,0,0,0,.9-1.5c.2-.7.3-1.4.5-2.1.3-1.1.7-2.2.9-3.3.2-1.4.3-2.9.4-4.3.2-2.7.8-5.4.6-8.1a55.878,55.878,0,0,0-1.3-10c-.4-1.5-.7-3-1.1-4.5-.5-1.7-.6-3.6-2-4.9a.367.367,0,0,1-.1-.3,8.471,8.471,0,0,0-.4-1.7c-1.1-2.1-2.1-4.1-3.3-6.1-.4-.7-1-1.2-1.5-1.9-.2-.3-.3-.8-.5-1.1l-3.6-4.5a18.882,18.882,0,0,0-2-2,17.375,17.375,0,0,0-2-1.3c-.1-.1-.1-.5-.4-.8a8.635,8.635,0,0,0-1.4-1.3c-.6-.4-1.5-.5-1.8-1a6.276,6.276,0,0,0-2.5-2.1c-.7-.5-1.5-1.4-2.6-.6-.4-1.5-3.2-2.9-4.7-2.5-.6-1.3-4.1-2.4-5.4-1.6-.4-1.2-3.5-1.9-4.3-1.1a4.759,4.759,0,0,0-1.4-.5c-1.5,0-3.1.2-4.6.3-1.3.1-2.5.1-3.8.3a1.143,1.143,0,0,0-.8.7,3.371,3.371,0,0,0,.5,1.7c2,3,4.3,5.9,6.3,9,1.3,2,2.7,4,4,6.1a2.176,2.176,0,0,1,.4,1.7,2.059,2.059,0,0,1-2.5,1.2c-1.2-.2-2.4-.4-3-1.9a15.265,15.265,0,0,0-1.8-2.9c-1.5-2.2-3-4.3-4.5-6.5-1-1.5-2.1-3-3.2-4.4-.6-.8-1.5-1.3-1.9-2.3a1.008,1.008,0,0,0-.9-.3,19.986,19.986,0,0,0-2.1,1c-.5.3-.9.6-.6,1a5.9,5.9,0,0,0-1.4.2,21.413,21.413,0,0,0-1.9,1.3,1.17,1.17,0,0,0-.4,1.7c1.2,2.1,2.3,4.2,3.5,6.3a3.552,3.552,0,0,1,.4.9c.8,1.6,1.4,3.3,2.3,4.9,1.3,2.2,2.6,4.4,4,6.6a9.5,9.5,0,0,0,1.6,1.9,1.488,1.488,0,0,1,.1,2.2,30.63,30.63,0,0,1-2.9,2.1c-.2.1-.6-.1-.8-.2a8.637,8.637,0,0,0-1.6-1c-.8-.3-1.7-.5-2.5-.8-1.7-.7-3.4-1.5-5-2.2-3.3-1.4-6.6-2.8-9.9-4.3-1.2-.5-1.5-.5-1.8.8C239.1,373.7,239.2,374.2,239.2,374.6Zm-55.6-103c.1-.1.2-.1.3-.2a1.486,1.486,0,0,0-.2-.9,12.036,12.036,0,0,1-1.1-2.3c-.6-2.2-1-4.5-1.6-6.7a10.055,10.055,0,0,1,.9-7.4,15.221,15.221,0,0,1,5-5.4c3.6-2.7,7.1-5.4,10.6-8.1a1.819,1.819,0,0,0,.8-1.6c0-1.7.1-3.4.2-5a45.34,45.34,0,0,1,.5-5.3,11.981,11.981,0,0,1,1.3-3.6c1.3-2.2,3.5-3.4,5.8-4.3,2.9-1.1,6-2,8.9-3.1a59.258,59.258,0,0,0,6.8-3.1c2-1,3.8-2.3,5.8-3.2,3.5-1.6,7-3.1,10.5-4.6.9-.4,1-.5.4-1.3-.8-1.1-1.7-2.2-2.6-3.3a3.881,3.881,0,0,0-1.1-.6c-.6-.3-1.3-.4-1.6-.9-.6-.9-1-1.9-1.5-2.8a7.143,7.143,0,0,0-.8-1.5c-.6-.7-1.4-1.2-2-1.9-2.1-2.3-4.1-4.7-6.1-7a2.622,2.622,0,0,0-.9-.5,29.926,29.926,0,0,1-3.2-1c-1.7-.6-3.4-1.2-5.1-1.7a28.189,28.189,0,0,1-9.6-4.5,2.7,2.7,0,0,0-1.9-.6c-1.2.2-2.5.4-3.2,1.8a3.363,3.363,0,0,1-1.9,1.8,6.543,6.543,0,0,0-3.9,3,36.362,36.362,0,0,1-3.8,6.3c-.7,1.1-1.2,2.4-2.2,3.1a31.015,31.015,0,0,1-5,2.9c-1.1.6-2.5.9-2.9,2.3a2.416,2.416,0,0,1-1.4,1.4c-1.7.8-3.3,1.7-5,2.6a3.555,3.555,0,0,0-1.7,1.3c-.1.3-.8.4-1.2.4a5.7,5.7,0,0,1-1.3-.1c-1.1.1-2.1.2-3.2.4a25.125,25.125,0,0,0-2.7.4,5.834,5.834,0,0,1-3.2.2,4.284,4.284,0,0,0-3.6.7c-.6.5-1.2,1.1-1.8,1.6-3,2.5-5.9,5-8.9,7.5-.6.5-.6.9-.1,1.3,1.2,1.1,2.5,2.1,3.7,3.2a5.241,5.241,0,0,1,1,1.1c.5.7,1,1.6,1.6,2.3A8.447,8.447,0,0,1,153,228a1.277,1.277,0,0,1-.4,1.1c-.5.7-1.2,1.2-1.7,1.9-.5.6-.9,1.4-1.4,2a3.684,3.684,0,0,1-3.7,1.1c-.8-.1-1.2.3-1.2,1.1v.7a3.14,3.14,0,0,1-1.9,2.4c-.3.1-.7.3-.8.6-.1.2.2.6.4.8,1.4,1.2,2.8,2.3,4.3,3.4,1,.8,1.9,1.5,2.9,2.3,1.4,1.1,2.7,2.1,4.1,3.2,1.5,1.1,3,2.2,4.4,3.4,1.7,1.4,3.4,2.8,5.2,4.1,3.6,2.7,7.2,5.4,10.7,8.1,2.4,1.8,4.7,3.7,7.1,5.5C182,270.4,182.8,271,183.6,271.6Zm-40.5-19.2-.2.2,1.5,2.4c1.1,1.8,2.3,3.7,3.4,5.5,1,1.6,2,3.1,3,4.7,1.3,2.1,2.6,4.2,3.9,6.2,1.2,1.8,2.4,3.6,3.6,5.5,1.4,2.2,2.8,4.5,4.2,6.7,2.2,3.5,4.4,6.9,6.7,10.3,1.4,2.1,2.7,4.2,4,6.3,2,3.1,4.1,6.2,6,9.3.7,1.2,1.4,2,3,1.7,1-.2,1.2-.3.9-1.3a3.188,3.188,0,0,1,0-2.7,2.016,2.016,0,0,1,.9-.7,1.332,1.332,0,0,1,.9.6,3.582,3.582,0,0,1,.4,1.1,3.552,3.552,0,0,0,.4.9,12.128,12.128,0,0,0,.5-1.4,9.165,9.165,0,0,1,1.2-3.4c1-1.4,2.4-2.6,3.6-4,.8-.9,1.5-2,2.3-2.9,0-.1.1-.2.1-.3,0-1.1.1-2.1,0-3.2,0-.7-.3-1.3-.3-2a2.823,2.823,0,0,0-1.3-2.6c-.5-.4-1.1-.8-1.6-1.2-2.5-1.9-4.9-3.7-7.4-5.6s-5-3.9-7.5-5.8c-.7-.5-.9-.5-1.5.2-.3.4-.8.8-1.1,1.2-.7-.4-.6-.8-.4-1.3a5.171,5.171,0,0,0,.6-1.3.959.959,0,0,0-.2-.9c-2-1.6-4.1-3.2-6.2-4.7-1.8-1.3-3.5-2.6-5.3-4-2.1-1.6-4.1-3.2-6.2-4.8l-9-6.9A9.192,9.192,0,0,1,143.1,252.4Zm78.2,88.2c-.1-.2-.1-.2-.1-.3a.349.349,0,0,1-.2-.1c-1.8-.2-2.7-1.4-3.4-2.9-.4-.8-.7-.9-1.2-.2-1.4,1.8-2.7,3.7-4.1,5.6a.96.96,0,0,0,.6,1.6,2.766,2.766,0,0,1,2,1.3,5.582,5.582,0,0,0,.8.5,5.8,5.8,0,0,1,1.2,1,1.674,1.674,0,0,0,1.9.8c.2,0,.3-.4.4-.6a4.5,4.5,0,0,1,.6-1.2c1-.7,1-.8.5-1.9-.2-.3-.4-.7-.6-1a1.559,1.559,0,0,1,1-2.5A1.758,1.758,0,0,0,221.3,340.6Zm21.8,24.6c.4.7.7,1.6,1.8,1.6a1.007,1.007,0,0,1,.3.1,7.252,7.252,0,0,0,2.9,2.3l.3.3c.4.3.7.5,1.1.8.2.2.6.2.7.4.9,1.3,2.5,1.4,3.8,2.1a.663.663,0,0,0,.7-.2c.1-.1,0-.4-.1-.6l-4.5-8.4a.934.934,0,0,0-1.4-.5C247,363.8,244.9,364.1,243.1,365.2Zm-33.2-33.5v1.4c0,.2.2.4.4.7.2-.1.5-.2.6-.4,1.4-1.9,2.7-3.8,4.1-5.6a1.2,1.2,0,0,0,0-1.5c-.9-1.2-1.8-2.4-2.6-3.6-1-1.3-1-1.3-2.4-.5a2.217,2.217,0,0,0-1.3,2.2,1.344,1.344,0,0,1-.2.9c-.4.7-.4,1.1.3,1.6a4,4,0,0,1,1.3,1.8A15.138,15.138,0,0,0,209.9,331.7Zm37.6,4a4.878,4.878,0,0,0-.7.3c-1,.5-2,1-3.1,1.5-.9.4-1,.6-.6,1.6.4.9.9,1.8,1.3,2.8.5,1,.7,1.1,1.6.5,1.3-.8,2.6-1.6,4-2.4.5-.3.6-.5.2-1-.8-1-1.6-2-2.4-2.9C247.8,335.9,247.6,335.8,247.5,335.7Zm-64.2,18.1c.1.6.2,1.6.4,2.6a.831.831,0,0,0,1.1.8c.7-.1,1.1-.6,1-1.5a23.634,23.634,0,0,1,.2-4.6,25.989,25.989,0,0,1,1.3-3.6c.1-.3.2-.8,0-1a1.369,1.369,0,0,0-2.3.3A13.95,13.95,0,0,0,183.3,353.8ZM197,369c.7-.4,1.7-.9,2.6-1.5,0,0-.1-.5-.3-.6a1.379,1.379,0,0,0-.9,0,9.218,9.218,0,0,1-4.7-.9,25.432,25.432,0,0,1-2.8-1.6,1.22,1.22,0,0,0-1.7.2,1.045,1.045,0,0,0,.4,1.5c.5.3,1,.7,1.6,1.1A15.759,15.759,0,0,0,197,369Zm46.9-37.6c-.1-.2-.1-.3-.2-.3-1.1-1.2-2.1-2.5-3.2-3.7-.1-.1-.6-.2-.7-.1-.3.4-.6.9-.9,1.4,0,0,.2.2.3.2.9.1,1.3.8,1.8,1.4.4.5.8,1.1,1.2,1.6a.94.94,0,0,0,.9.1A2.407,2.407,0,0,0,243.9,331.4Zm-52.1,28.9c-.5-.4-.9-.9-1.3-.9-.8-.1-1.3-.3-1.3-1.3,0-.3-.5-.7-.8-1-.1-.1-.5.1-.5.2a4.033,4.033,0,0,0,0,1.1,22.013,22.013,0,0,0,1.5,2.6c.3.4.7.9,1.3.6C191.2,361.4,191.4,360.9,191.8,360.3Zm11.8,2.9c-1-.3-1.8-.6-2.7-.8a1.113,1.113,0,0,0-1,.3,3.219,3.219,0,0,0-.1,1.7,1.149,1.149,0,0,0,.9.6A5.079,5.079,0,0,0,203.6,363.2Zm-9.4-.5c0,1.1.4,1.6,1.3,1.6.8,0,1.2-.6,1.2-1.7,0-.9-.6-1.6-1.3-1.5C194.6,361,194.2,361.6,194.2,362.7ZM66.5,312.8a7.253,7.253,0,0,1-1.5-1.1c-.6-.9-.7-.9-1.5-.1a4.621,4.621,0,0,1-.7.7,7.457,7.457,0,0,0-.7,1.2l.2.2C63.6,313.4,64.9,313.1,66.5,312.8ZM214.8,348c-.1,0-.3.1-.3.2a5.663,5.663,0,0,0-.3,1.8c0,.1.5.4.7.3a7.74,7.74,0,0,0,1.6-.7c.6-.3.6-.8,0-1.1A4.8,4.8,0,0,0,214.8,348Zm-25.9,3a9.015,9.015,0,0,0-1,.9,1.374,1.374,0,0,0,.4,1.2c.2.2.8-.2,1.2-.3a.758.758,0,0,0,.4-.2l.7-.7-.7-.7A1.977,1.977,0,0,1,188.9,351ZM177.4,92.8a9.439,9.439,0,0,1-.3-.9,3.933,3.933,0,0,0-.6.2,2.052,2.052,0,0,0-.1,2.9c.3.3.6.3.7-.1A21.115,21.115,0,0,1,177.4,92.8Zm1,242.4c-.1,0-.3.2-.5.3a4.348,4.348,0,0,0,.7.4c.8.3,1.7.4,2.6.7.5.1.9.2,1-.3,0-.2-.4-.7-.7-.7C180.4,335.4,179.5,335.4,178.4,335.2Zm-3.3-3.4c-1.2-.3-2.2-.9-3.4-.3A2.712,2.712,0,0,0,175.1,331.8Zm-3.8,2.2c-.6-.8-1.1-1.1-1.8-1-.4.1-.7.5-1,.8.1.1.1.2.2.4A19.669,19.669,0,0,1,171.3,334ZM185,309.1c-.3-.5-.6-1.2-.8-1.2-.7,0-.5.7-.5,1.2,0,.3.4.6.6.9A5.5,5.5,0,0,1,185,309.1Zm-47.2-96.5c.8-.1,2.2-2,2.1-3C139.2,210.5,138.6,211.5,137.8,212.6Zm54,135.8c-.1-.9-.7-.8-1.2-.9-.2-.1-.5.1-.7.2.2.3.3.7.5.7A6.554,6.554,0,0,0,191.8,348.4Zm22.8,3.8a5.072,5.072,0,0,0-.9-.2,1.275,1.275,0,0,0-.7.5c-.1.2.1.5.1.8a3.553,3.553,0,0,0,.9-.4C214.2,352.8,214.3,352.5,214.6,352.2ZM176.9,97.7c.2-1.8-.3-2.4-1.2-2C176.1,96.3,176.5,97,176.9,97.7Zm-35,109.8c-.1-.1-.3-.2-.4-.3-.4.7-.9,1.4-1.3,2,.1.1.2.1.3.2A23.07,23.07,0,0,1,141.9,207.5Z" fill="#0067d1"/>
      </g>
    </g>
    <g id="Gruppe_176" data-name="Gruppe 176">
      <g id="Gruppe_175" data-name="Gruppe 175">
        <path id="Pfad_206" data-name="Pfad 206" d="M21,306.3a5.274,5.274,0,0,0,.3-1.2c.1-2,.2-4.1.3-6.1.1-1.3.1-2.7.3-4,.3-2.1.8-4.2,1.3-6.3.6-2.3,1.2-4.6,2-6.8a48.95,48.95,0,0,1,2.7-5.7,36.006,36.006,0,0,1,2-3.9c1.3-2,2.7-3.9,4.1-5.9a31.121,31.121,0,0,1,2.3-2.8,71.356,71.356,0,0,1,5.5-5.5,79.494,79.494,0,0,1,8.4-5.9,46.775,46.775,0,0,1,6.4-3,57.783,57.783,0,0,1,7-2.4,55.781,55.781,0,0,1,14.7-1.7,61.744,61.744,0,0,1,12.1,1.6,53.014,53.014,0,0,1,10.4,3.5,63.32,63.32,0,0,1,6.8,3.6,34.537,34.537,0,0,1,4.1,2.5c1.7,1.2,3.4,2.5,5,3.8,1.5,1.2,2.9,2.5,4.3,3.7.5.5.9.4,1.4,0a27.134,27.134,0,0,0,6-6.2,2.777,2.777,0,0,0,.3-1.8,2.373,2.373,0,0,1,1.7-2.5,2.7,2.7,0,0,0,.8-.7c1.2-1.7,2.4-3.3,3.7-5,1.6-2.2,3.2-4.4,4.8-6.5a3.647,3.647,0,0,0,1.1-3c-.2-1.2.8-2.1,2.1-2.3.6-.1.8-.3.9-.8a2.463,2.463,0,0,1,2.3-2.2c.5-.1.9-.5.4-.9-1-.9-1.9-2.1-3.4-2.3a2.437,2.437,0,0,0-1.2,0c-1.2.1-1.6,0-2.1-1.1a2.024,2.024,0,0,0-1.4-1.3c-1.3-.3-1.8-2.5-1.5-3.8a13.9,13.9,0,0,0,.6-1.9,1.337,1.337,0,0,0-.1-.9c-2.1-2.7-1.1-4.2.7-6.2a1.209,1.209,0,0,0,.3-1c-.4-1.7-.9-3.3-1.3-5-.2-1.1-.2-2.1.8-2.8a1.988,1.988,0,0,0,.8-2.3c-.5-1.7.1-2.4,1.7-2.9.8-.3,1.6-.8,2.4-1.1,1.1-.3,2.3-.5,3.5-.7,1.4-.2,2.9-.4,4.3-.7a1.8,1.8,0,0,0,.9-.6,3.56,3.56,0,0,1,2.9-1.1,2.044,2.044,0,0,0,2-.8,6.69,6.69,0,0,1,1.9-1.4,24.429,24.429,0,0,1,2.4-1,6.567,6.567,0,0,1,3.9-.8c.8.1,1.5.1,1.8-1,.1-.4.8-.7,1.2-1.1l.6-.6c.7-.6,1.5-1.2,2.2-1.8.3-.3.8-.5,1-.9a4.384,4.384,0,0,1,3.3-2.3c.6-.1,1.1-.3,1.1-.9,0-1.3.9-1.8,1.8-2.5a10.075,10.075,0,0,0,2.1-2c1.3-1.7,2.4-3.5,3.6-5.2a41.694,41.694,0,0,1,3-4,3.322,3.322,0,0,0,.7-2.1,7.855,7.855,0,0,1,1.9-4.5,1.943,1.943,0,0,0,.3-1.3c.1-.7,0-1.4.1-2,.4-2.1,1.7-3.9,2.5-5.9.9-2.4,2.7-4.3,3-6.9a6.752,6.752,0,0,0,.2-1.4,8.054,8.054,0,0,1,3.3-6.5c1.1-.8,2.3-1.6,3.4-2.5.2-.1.4-.5.3-.6a13.024,13.024,0,0,0-1.5-3.4,17.04,17.04,0,0,0-2.6-3.4c-1.3-1.4-1.9-3.1-2.9-4.6a16.18,16.18,0,0,1-1-1.8c-.2-.2-.4-.5-.7-.6-2-.7-2.3-1.3-2.2-3.4a17.262,17.262,0,0,0-.5-4.5,2.457,2.457,0,0,0-1.6-1.7c-.4-.2-.6-.7-.9-1.1a10.1,10.1,0,0,0-1.6-1.3,1.382,1.382,0,0,1-.4-1.6,15.566,15.566,0,0,0-.3-7.4c-1.4.4-1.9-.7-2.6-1.5-.8-1-1.6-2.1-1.3-3.5s.7-2.8,1.1-4.4a8.709,8.709,0,0,0-1.9-.5c-.6,0-.8,0-.7-.7.1-.4-.2-.9-.4-1.3a3.515,3.515,0,0,0-.7-.9,4.068,4.068,0,0,1,2.6-3.4c.2-.1.5.1.8.1-.2.3-.4.5-.5.7a1.454,1.454,0,0,0,2.2-.5,2.092,2.092,0,0,0-.4-.6c1.1-.1,1-.3,1.1-1.3a12.8,12.8,0,0,1,.9-3.2c0-.1.3-.1.4-.1a2.9,2.9,0,0,0,2.9-1.5,3.8,3.8,0,0,1,3.7-1.9c.3,0,.8.3.8.5a3.809,3.809,0,0,1-.3,1c-.1.3-.2.5-.3.8s-.2.6-.3,1a.349.349,0,0,1,.2.1c1.9-1,3.9-1.7,5.6-3.3a7.523,7.523,0,0,1,4.9-1.9,8.584,8.584,0,0,1,1.7.3,12.2,12.2,0,0,0,.7-1.7c.1,0,.2.1.3.1a6.151,6.151,0,0,0,.1,1.3,3.385,3.385,0,0,0,.8-.3c.7-1.1,1.2-2.3,1.9-3.4.1-.2.5-.4.7-.6a12.005,12.005,0,0,1,5-2.6,1.95,1.95,0,0,1,1.3.1c.3.2.5.9.4,1-.5.4-.7,1-1.4,1.3a9.1,9.1,0,0,0-2.7,1.8c-.2.1-.2.5-.3.7l.2.2,2.1-1.5c.1,0,.2.1.3.1.6.5,1.7.9.1,1.5-.1,0-.1.3-.1.4,1.4.3,1.4.3.7,1.1.3.9,1,1.1,1.9,1a13.334,13.334,0,0,1,2,0,1.3,1.3,0,0,1,1.1,1.6c.8.4,1.6.9,2.4,1.2a6.448,6.448,0,0,0,2,.3,10.442,10.442,0,0,1,4.9,1.2,8.06,8.06,0,0,1,2.5,3c-.1.1-.1.2-.2.2a12.13,12.13,0,0,0-1.4-.5c.8,1.4,1.5,2.8,2.3,4.2a.138.138,0,0,1,0,.2c-.7.8.1,1.4.3,2.1.3,1,.7,2.1.9,3.1.3,1.5.5,3.1.7,4.7.2,1.1.5,2.2.6,3.3a2.25,2.25,0,0,1-.1,1.4,3.516,3.516,0,0,0,.3,3c.1.2.8.6.9.5.7-.4,1.1,0,1.6.4a2.558,2.558,0,0,0,.1,3,4.2,4.2,0,0,1,.1,2.5c0,.7-.2,1.5-.2,2.2.1,0,.2.1.3.1.6-.3,1.1-.7,1.7-1,1-.7,2-.4,3.1,0a3.167,3.167,0,0,0,1.6.4,9.458,9.458,0,0,1,5.2,1.4,7.44,7.44,0,0,0,4.1,1.1,18.564,18.564,0,0,1,5.2,1.1c2.1.7,4.2,1.3,6.3,2.1,1.9.7,3.6,1.7,3.8,4.2.2,2,1.7,3.4,2.9,4.8a39.185,39.185,0,0,1,2.5,3.2c.9,1.2,1.8,2.5,2.6,3.8.2.2.3.5.5.7.5,1.2.7,1.2,1.7.5,1.9-1.4,3.7-2.9,5.6-4.2,1.8-1.1,3.7-2,5.6-3,3.4-1.7,7.1-1.7,10.8-1.7,1.9,0,3.8,0,5.7.1a13.732,13.732,0,0,1,2.8.5c2.1.7,4.2,1.3,6.3,2.1,1.3.5,2.6,1.3,3.9,1.9a17.61,17.61,0,0,1,2.3,1.4c.3.2.5.7.8.9a18.822,18.822,0,0,1,3.5,4.5c.4.6,1,1.2,1.4,1.8.6,1,1.1,2.1,1.7,3.2a10.837,10.837,0,0,0,.8,1.9,6.9,6.9,0,0,0,1.8,1.6,33.1,33.1,0,0,0,3.3,1.5c.1.1.3,0,.8-.1-1-1.1-1.8-2.1-2.6-3.1-.7-.8-1.3-1.6-2-2.4a.773.773,0,0,1,.3-1.2c.6-.3,1.2-.8,1.8-.1a22.317,22.317,0,0,1,4.2,5.5c.4.7,1.2,1.2,1.6,2s1.2.8,1.8,1.2a.6.6,0,0,0,.4.1c.5-.2.9-.3,1.2.2a1.248,1.248,0,0,1-.2,1.7c-.5.4-.9,1.1-1.4,1.6a2.134,2.134,0,0,1-1.2.7,6.73,6.73,0,0,0-3.4,1.6,11.234,11.234,0,0,0-3.6,3.9,5.662,5.662,0,0,1-2.4,1.9,13.75,13.75,0,0,1-7.2,1.2,17.878,17.878,0,0,0-6.1-.2c-1.5.3-3.1.6-4.6.9-1.7.3-3.5.7-5.2,1a4.277,4.277,0,0,0-2.7,3.1c-.3,1.4-.7,1.9-2.1,2a2.444,2.444,0,0,0-2.4,1.4,13.15,13.15,0,0,1-2.5,2.2c-.2.2-.4.6-.3.8a30.491,30.491,0,0,0,2.3,4.4c.8,1,2,1.6,2.9,2.6a7.928,7.928,0,0,1,2.4,5.4c0,.2-.1.5-.1.7a3.83,3.83,0,0,0,.1,3.3,4.99,4.99,0,0,1,.5,2.1c.2.7.2,1.5.4,2.2a1.47,1.47,0,0,0,.5.6c2,1,2.5,2.1,2.2,4.2a17.632,17.632,0,0,0,0,2.3,7.388,7.388,0,0,0,1.2,4.3,2.714,2.714,0,0,1,.2,3,12.236,12.236,0,0,0-1,2.4,8.2,8.2,0,0,0,.2,2.2c.2,1.3.4,2.7.5,4,.1,1.7.1,3.4.1,5.1a20.808,20.808,0,0,1-2.3,10.1,16.064,16.064,0,0,0-1.6,3.9,5.445,5.445,0,0,1-2,3.6c-1.1,1-1.8,2.3-2.9,3.3a41.361,41.361,0,0,1-4.6,3.7c-1.2.8-2.5,1.4-3.7,2.2a5.383,5.383,0,0,0-.9,1.2,2.336,2.336,0,0,1-.7.7,43.913,43.913,0,0,1-5,3.4,29.4,29.4,0,0,1-5.1,2.3,67.886,67.886,0,0,1-11.6,2.9c-1.8.3-3.6.5-5.5.8-1.3.2-2.5.7-3.8.9-1.5.2-3.1.2-4.6.5-2.4.5-4.9,1.2-7.3,1.9-3.2.9-6.4,2.1-9.8,2.5a28.579,28.579,0,0,0-4.2,1,1.272,1.272,0,0,0-.7.9,47.793,47.793,0,0,1-2.9,11.1q-1.2,3.15-2.1,6.3a1.971,1.971,0,0,0,.3,1.5,52.6,52.6,0,0,1,5.4,12.1c.4,1.5.7,3.1,1.1,4.6a7.579,7.579,0,0,0,.6,1.6c.3,1,.6,1.9.9,2.9a1.276,1.276,0,0,0,.5.7.778.778,0,0,0,.8-.2c.7-1.2,1.7-2.2,2.1-3.6a5.722,5.722,0,0,1,3.4-3.9,5.5,5.5,0,0,0,1.8-1.9c1.6-2.2,3.2-4.4,4.8-6.7.8-1.1,1.5-2.1,2.2-3.2a.629.629,0,0,0,0-.6c-.6-1.6-1.2-3.1-1.8-4.7-.1-.2-.1-.4-.3-.5a1.377,1.377,0,0,1-.4-1.8c.4-1,.8-1.2,1.7-.6.3.2.6.3.9.5.2.1.5.2.5.3,0,.9.7.8,1.3,1a2.725,2.725,0,0,1,1.2.6,3.418,3.418,0,0,0,3.1,1.4c1.9-.1,1.7,0,1.4-1.8a6.558,6.558,0,0,0-2.8-4.4,5.238,5.238,0,0,0-3.6-1.2,6.478,6.478,0,0,1-2-.2c-1.4-.5-2.7,0-4,.4-.9.2-1,1-1.1,1.8v.9a31.814,31.814,0,0,1-2.7-1.7c-1.6-1.2-3.2-2.4-4.9-3.5a3.938,3.938,0,0,1-1.6-3.3,3.809,3.809,0,0,1,.3-1c1.6-3.7,4.6-5.2,8.6-4.4a25.542,25.542,0,0,1,7.6,2.7c3.8,1.9,7.5,3.7,11.3,5.5a2.117,2.117,0,0,0,.7.3c.8.1,1,.7.8,1.4a1.046,1.046,0,0,0,.5,1.3c.5.3.9.7,1.4,1a1.223,1.223,0,0,1,.2,2c-.5.6-.6,1.5-1.1,2.1a17.271,17.271,0,0,1-2.8,2.6c-.5.4-1,.5-1,1.3a1.76,1.76,0,0,1-.6,1.3,3.3,3.3,0,0,0-1,3c.1,1,0,1-.7,1.4a4.258,4.258,0,0,1-1.4,3.7,1.421,1.421,0,0,1-.6.2c-.7.1-1.3.2-2,.3h-1.8c-.4,0-.9,0-1,.3-1.8,2.4-3.6,4.9-5.4,7.3a.823.823,0,0,0,.1,1.2c.7.9,1.7,1.8,1,3.1a9.994,9.994,0,0,1-2.3,2.7c-.4.3-1.4.1-2-.1-.6-.3-1-.2-1.3.4a4.485,4.485,0,0,1-1,1.3c-.6.5-.4.9,0,1.3a7.006,7.006,0,0,0,1,.8c2.3,1.2,3.7,3.2,5,5.4.2.3.5.7.7,1a1.506,1.506,0,0,1,0,1.9c-.4.5-.2.8.1,1.2,1.6,2,3.3,3.9,4.9,5.9,2.5,3,5,6,7.4,9.1.6.7.9,1,1.9.6a35.259,35.259,0,0,1,9.1-2,55.677,55.677,0,0,1,12.9.2,41.767,41.767,0,0,1,7,1.6,42.569,42.569,0,0,1,6.3,2.2,73.735,73.735,0,0,1,8.7,4.8c1.7,1.1,3.2,2.5,4.8,3.7a36,36,0,0,1,5.3,5c.8.8,1.6,1.5,2.4,2.3.6.7,1.1,1.5,1.7,2.2a35.028,35.028,0,0,1,2.4,3c.5.7.9,1.6,1.4,2.4a41.908,41.908,0,0,1,4.1,7.5c.2.4.7.8.8,1.2.6,1.6,1.1,3.3,1.7,4.9.2.4.4.8.6,1.3a13.893,13.893,0,0,1,.6,1.9c.3,1.2.5,2.5.9,3.8a12.474,12.474,0,0,1,1,2.7c.4,2.1.6,4.2.9,6.3a18.411,18.411,0,0,1,.3,3.3,36.221,36.221,0,0,0,.2,5.7,43.385,43.385,0,0,1,0,5.1v.2c-.8,1.1-.2,2.3-.3,3.5a5.845,5.845,0,0,1-1.3,3.8l-.1.1c-.3,1.3-.6,2.7-.9,4a20.949,20.949,0,0,1-.8,2.3c0,.1-.1.1-.2.2-.4,1.3-.7,2.6-1.2,3.8a37.783,37.783,0,0,1-1.7,3.5c-.4.8-.7,1.5-1.1,2.3-.3.6-.8,1.2-1.1,1.9a17.754,17.754,0,0,1-3.9,5.1,27.248,27.248,0,0,0-2.3,2.5,12.933,12.933,0,0,1-3.7,3.3c-2.9,1.9-5.9,3.6-8.7,5.5a15.739,15.739,0,0,1-5.1,1.9c-.4.1-.8.4-1.3.5-2.3.6-4.5,1.2-6.8,1.7a43.53,43.53,0,0,1-10.2.9,39.06,39.06,0,0,1-4.8-.5c-.1,0-.2-.1-.3-.1-1.9.2-3.5-.9-5.3-1.4-2.2-.7-4.3-1.3-6.5-2a11.11,11.11,0,0,1-1.6-.7c-2-1-4.1-2.1-6.1-3.1-.6-.3-1.2-.8-1.9-1.1a9.143,9.143,0,0,1-1.4-.7c-.7-.5-1.3-1-1.9-1.5-.9-.8-1.9-1.6-2.8-2.4a15.935,15.935,0,0,1-1.3-1.3c-1.4-1.4-2.9-2.6-4.2-4.1-1.2-1.3-2.2-2.8-3.3-4.2-.5-.7-1.2-1.2-1.7-1.9-.8-1.2-1.5-2.5-2.2-3.7-.4-.7-1-1.3-1.4-2-.6-1-1-2.2-1.5-3.2-.5-.9-.7-2-1.6-2.8-.5-.4-.6-1.2-.8-1.9-.4-1.3-.8-2.7-1.2-4a4.7,4.7,0,0,0-.6-.9,3.508,3.508,0,0,1-.5-.8c-.3-1.7-.6-3.3-1-5a1.072,1.072,0,0,0-.2-.6,3.008,3.008,0,0,1-.8-2.2c-.2-1.5-.2-3-.4-4.5a11.5,11.5,0,0,0-.6-1.7.9.9,0,0,1-.1-.5c0-1.6.1-3.2.2-4.9a.6.6,0,0,0-.1-.4,3.117,3.117,0,0,1,0-3.1c.3-.6-.4-1.8-1-1.7-1.3.2-1.7-1-2.7-1.3-.1,0-.1-.5-.1-.7,0-.1.4-.2.6-.2.9.4,2-.1,2.7.7.1.1.5,0,.5-.1.1-.3.3-.7.2-.9a2.87,2.87,0,0,1,.2-2.7,3.749,3.749,0,0,0,.1-1.1,10.267,10.267,0,0,1,.5-2.4,1.2,1.2,0,0,0-1.4-1.6,8.065,8.065,0,0,0-3.9,1.7,1.493,1.493,0,0,1-1,.3,3.852,3.852,0,0,0-3,1.2c-.3.4-1.2.4-1.9.6-.2.1-.5,0-.7,0-.6.2-.8-.1-1-.7a21.159,21.159,0,0,0-1.1-2.1c-.3-.5-.6-1-.9-1.6-1.8.6-3.8,1.4-5.7,2.1v.3c.4.1.8.5,1.1.4.9-.3,1.3.3,1.9.8-.9,1.5-1.4,1.6-2.6.5a2.016,2.016,0,0,0-1.1-.3c-.3-.1-.8.1-1-.1a3.437,3.437,0,0,0-2.7-.9,5.483,5.483,0,0,1-3.2-1.4c-.1,0-.1-.2-.2-.2-1.6-.1-2.7-1.5-4.3-1.6-.4,0-.8-.4-1.2-.6-.5-.3-1-.5-1.5-.8a7.635,7.635,0,0,1-1.1-.8,8.278,8.278,0,0,0-1.5-1.1,1.532,1.532,0,0,1-1.1-1.1,1.765,1.765,0,0,0-.8-.9,2.622,2.622,0,0,1-1.3-1.6,2.836,2.836,0,0,0-.8-1.1c-.1-.1-.2-.1-.3-.2-.7-1.4-1.7-2.6-2-4.2a3.946,3.946,0,0,0-.6-1.5,2.026,2.026,0,0,1-.4-1.5,2.7,2.7,0,0,0-.3-1.5,1.844,1.844,0,0,1-.1-1.9,1.72,1.72,0,0,0-.1-1.4,1.583,1.583,0,0,1-.1-1.5,4.4,4.4,0,0,0,.2-1.6,2.276,2.276,0,0,1,.4-1.6,2.092,2.092,0,0,0,.3-1.4c0-.6,0-1,.5-1.4.9-.7.7-1.4-.3-1.8l-9-3a1.7,1.7,0,0,0-.7-.1c-1.6-.2-2.3-.7-2.7-2.3-.3-1-.7-2,.1-2.9.1-.1-.1-.6-.3-.6-.7-.2-.8-.7-.9-1.4a8.955,8.955,0,0,0-.8-2.3,10.929,10.929,0,0,0-.8-1.5,1.275,1.275,0,0,0-.7-.5,72.817,72.817,0,0,1-7.7-3.1c-2.5-1.3-4.8-2.9-6.1-5.6a6.9,6.9,0,0,1-.3-4.7c0-.2.4-.4.6-.6a10.272,10.272,0,0,1,7.8-2.7c1.8.2,3.5.5,5.3.7,1.6.2,3.2.5,4.8.7a1.854,1.854,0,0,0,.7-.2s0-.4-.1-.5c-2.6-3.9-5.2-7.9-7.8-11.8l-5.4-8.1c-1.5-2.3-3-4.6-4.5-6.8-1.9-2.8-3.7-5.7-5.6-8.6-1.2-1.8-2.5-3.5-3.7-5.3-1.1-1.6-2.1-3.3-3.2-5-.3-.5-1-.8-1.4-1.2-.9-1.2-1.6-2.4-2.5-3.6-1.3-2-2.7-4-4-6-.3-.4-.6-.5-.8.1a2.977,2.977,0,0,1-2.7,2.3c-.3,0-.7.5-.8.9-.7,2.1-1.3,4.2-2.1,6.3-.4,1-1.1,1.9-1.6,2.9-.2.3-.3.7-.6,1.2.3.1.6.1.8.3.6.3.9.8.5,1.3a2.737,2.737,0,0,0,0,3.6,25.21,25.21,0,0,1,2.4,4.2c.9,2.5,2.6,4.7,3.1,7.5.2,1.3,1.2,2.6,1.4,3.9.5,2.5,1.7,4.8,1.7,7.5a17.589,17.589,0,0,0,.8,3.7,2.92,2.92,0,0,1,.2.9c.1,1.6.3,3.2.4,4.9a43.413,43.413,0,0,1,.1,5.1c-.1,2.5-.2,5-.4,7.5-.1,1.3-.5,2.5-.7,3.8a10.04,10.04,0,0,1-.4,2.4c-.7,2.3-1.5,4.6-2.2,7a19.451,19.451,0,0,1-.8,2.2c-1,2.2-1.8,4.4-3,6.5-1.2,2.2-2.7,4.2-4,6.3a36.171,36.171,0,0,1-2.2,3.2c-1.6,1.8-3.3,3.6-4.9,5.3a41.067,41.067,0,0,1-3,2.9,50.948,50.948,0,0,1-15.2,8.7,45.924,45.924,0,0,1-9.5,2.5,81.4,81.4,0,0,1-8.5.8c-3.2.1-6.4,0-9.5-.1a40.364,40.364,0,0,1-6.9-.7,31.774,31.774,0,0,1-5.7-1.9,52.732,52.732,0,0,0-4.9-2.2c-1.8-.5-3.1-1.8-4.7-2.7a36.468,36.468,0,0,1-4.3-3.5,39.755,39.755,0,0,1-3.3-2.4c-2.2-1.9-4.3-3.9-6.5-5.8-.8-.7-1.9-1.2-2.7-2a17.909,17.909,0,0,1-2-2.8,13.028,13.028,0,0,0-1-1.5c-.1-.2-.4-.3-.5-.5-1.5-2.2-2.9-4.3-4.3-6.5-.7-1.1-1.1-2.3-1.7-3.4-.2-.5-.6-.9-.8-1.4-1-2.2-2-4.5-3-6.7a24.652,24.652,0,0,1-1.8-5.2c-.5-2.8-1.8-5.4-1.9-8.3a21.689,21.689,0,0,0-.7-3.5c-.1-.7-.1-1.3-.2-2-.1-1.5-.2-2.9-.3-4.4a.758.758,0,0,0-.2-.4A3.337,3.337,0,0,0,21,306.3Zm47.3,11.1c.7-.4,1.4-.7,2-1.1,1.6-1.1,2.2-2.9,3.4-4.3.1-.1.1-.4.2-.6.1-.7,0-1.7.4-2.1.8-.8.5-1.8.6-2.6A6.726,6.726,0,0,0,76,306c.3-.2.5-.5.8-.6l2.1-1.2c0-.1.1-.2.1-.3a3.553,3.553,0,0,1-.9-.4c0-.1.1-.2.1-.3h1c1.3.1,2.2.2,3.1-1.4a.663.663,0,0,1,.7-.2c.5.6,1,.2,1.5,0a2.485,2.485,0,0,1,.8-.1,2.939,2.939,0,0,0,2.7-.6,2.768,2.768,0,0,1,.8-.5c0,.4.1.6.1.8-.5.1-.8.1-1.3.2.8.8,1.4.3,2,0,1.8-1,3.8-1.6,4.8-3.6a8.339,8.339,0,0,0,.4-1.2c.4-.4,1-.9,1.5-1.4,1.3-1.2,1.6-3.2,3.2-4.2a.31.31,0,0,1,.1-.2c1.4-1.8,2.7-3.6,4.1-5.4.9-1.3,1.9-2.5,2.8-3.8a3.81,3.81,0,0,0,.3-1q1.8-2.25,3.9-4.5c.4-.4.3-.6-.1-.9a31.968,31.968,0,0,0-2.7-2.5c-.7-.6-1.4-1.7-2.8-1,.4-1.4-.6-1.6-1.3-2.1-1-.7-2.1-1.3-3.2-2-1.4-.9-1.4-.9-2.6,0h-.2c0-.3-.1-.6,0-.8.3-.6-.1-.8-.5-1L93.1,264c-1.2-.5-1.3-.4-2.4.2-.1-.2-.1-.5-.2-.7s-.3-.6-.4-.6c-1.9-.5-3.8-.9-5.7-1.3a.768.768,0,0,0-1,.7c0,.2-.2.4-.4.7a1.1,1.1,0,0,0-.2-.4c.1-1.3,0-1.3-1.3-1.4-1.2-.1-2.5-.2-3.7-.2-1.3,0-1.3,0-1.4,1.3,0,.1-.1.2-.2.4-.2-.3-.5-.5-.5-.7-.2-.9-.8-1-1.5-1-1.7.2-3.5.5-5.2.7-.8.1-1.1.5-.7,1.3a1.268,1.268,0,0,1,.1.6c-.1.1-.2.1-.2.2-.2-.3-.6-.5-.7-.8a.8.8,0,0,0-1-.6c-1.6.5-3.2,1.1-4.8,1.7-.3.1-.4.5-.7.8-.2.2-.4.4-.6.4a7.772,7.772,0,0,0-1.6.2c-1.3.8-2.6,1.6-3.9,2.5-1.1.8-1,.8-.4,1.9v.4a1.077,1.077,0,0,1-.8-.2c-.5-.6-1-.4-1.4.1-1,1-2,1.9-3,2.9a4.58,4.58,0,0,0-.7,1.4c-.4.3-1,.5-1.3,1-1,1.3-1.9,2.6-2.8,3.9-.6.8-.9,1.6.2,2.2v.2c-1.4-.3-1.5-.2-2.3,1.2l-1.8,3.9c-.3.7-.7,1.3.5,1.9-1.1-.1-1.4.5-1.6,1.2-.4,1.7-.9,3.3-1.2,5-.3,1.3-.2,1.4.6,2.3-1,.1-1.2.7-1.3,1.5l-.3,4.5c-.1.7,0,1.3.7,1.3-.2.6-.7,1.1-.7,1.7a23.834,23.834,0,0,0,.4,4.6c.2.9-.3,2.3,1.6,2.5-1.2.5-1,1.2-.8,2a12.547,12.547,0,0,1,.7,2.6,19.369,19.369,0,0,0,2.3,7.4,30.9,30.9,0,0,1,1.4,3.2c.3.6.9,1.8,1.3,2.7.7,1.3,1.4,2.6,2.2,3.8a17.967,17.967,0,0,0,2.4,3.3c1.3,1.5,2.5,3.1,3.8,4.6.4.4.8.5,1.2,0,.2-.3.5-.6.7-.9a1.689,1.689,0,0,1-.3,1c-.2.6-.6,1.2.1,1.7,1.7,1.5,3.4,2.9,5,4.3.5.4,1.6,1.3,2.1,1.6,1.6,1,3.2,1.9,4.9,2.9.5.3,2.5,1.3,3,1.5,1.6.6,3.1,1.2,4.7,1.8a21.278,21.278,0,0,0,2.7.8c1.4.3,2.9.6,4.3.9,1,.2,2.8.4,3.4.5a61.83,61.83,0,0,0,7.8-.2c1.8-.3,3.6-.6,5.3-.9a17.069,17.069,0,0,0,2.6-.7c1.6-.6,3.2-1.3,4.8-2a13.923,13.923,0,0,0,2.5-1.4l4.2-3a21.652,21.652,0,0,0,1.9-1.7c1.3-1.3,2.6-2.7,3.9-4.1a16.822,16.822,0,0,0,1.8-2.3c.7-1,1.3-2.1,2-3.1a14.757,14.757,0,0,0,1.7-3.3c.6-1.4,1.1-2.9,1.8-4.2a25.329,25.329,0,0,0,1.2-3.6c.3-1.3.6-2.6,1-3.9a28.631,28.631,0,0,0,.6-4.6c.1-1.5.2-3,.2-4.5,0-.7-.2-2.9-.2-3.4-.1-1.3-.2-2.6-.4-3.8a47.981,47.981,0,0,0-.8-4.8,34.52,34.52,0,0,0-1.2-4.3c-.2-.5-.6-1-.8-1.4a4.869,4.869,0,0,0-.1-1.2c-.5-1.4-1.1-2.7-1.6-4a26.281,26.281,0,0,0-2-3.8c-.4-.5-.7-.1-1,.2a5.5,5.5,0,0,1-.7.9c-1.3,1.3-2.1,3.1-3.3,4.5-2.3,2.6-4.2,5.5-6.3,8.2-.7.9-1.4,1.7-1.2,3-.9-.2-1.4.3-1.8,1-.5.7-.9,1.5-1.5,2.2-1.2,1.5-2.2,3.1-3.4,4.7-.8,1-1.3,2.5-3,2.4-.1,0-.2.2-.4.3-1-1.7-2.7-.6-4-1-.3-.1-.8,0-1.1-.3-.5-.4-1-.6-1.5,0a3.46,3.46,0,0,1-1.1,1c-.6.4-1,.8-.9,1.4-.6.6-1.1,1.2-1.6,1.7-.7.7.2,1.4.1,2.1-.7-.8-.7-.8-1.6-.1a2.11,2.11,0,0,1-2.5.6c-.2-.1-.6,0-.9,0-.1-.9-1.8-2-2.9-1.8-.1-1-1-1.1-1.6-1.5a2.55,2.55,0,0,0-1.5,0c-1,.3-1.9.6-2.9,1a7.571,7.571,0,0,1,1.8-.9.987.987,0,0,0,.7-1.4,1.053,1.053,0,0,0-1.3-.7c-1.2.2-2.5.4-3.7.7a6.529,6.529,0,0,0-1.7.8c-.4-.7-.7.3-1.1.3A.894.894,0,0,0,68.3,317.4Zm179.9,60.2c-1.1.9-1.1,1.5.1,2.4a25.334,25.334,0,0,0,2.7,1.8c4,2.3,8.1,4.6,12.2,6.9a6.438,6.438,0,0,0,2.7,1.2,5.594,5.594,0,0,1,2.6.7c.8.4,1,.7.6,1.5a2.126,2.126,0,0,0-.1,1.9c.2.4.5.9.7,1.3a2.746,2.746,0,0,1-.5,3.1.778.778,0,0,1-.8.2,4.135,4.135,0,0,1-3.1-1.6c-.1-.2-.5-.3-.7-.5-.2-.1-.5-.3-.5-.4a1.945,1.945,0,0,0-1.5-1.4,1.381,1.381,0,0,1-.4-.3,3.356,3.356,0,0,0-2.9-1.6c-.1,0-.3-.2-.4-.3-.2-.2-.4-.5-.6-.6-3.6-2.2-7.3-4.3-10.9-6.5-.7-.4-1.2-.3-1.2.6,0,.8.2,1.7.2,2.5a.367.367,0,0,1-.1.3c-.1.6-.2,1.1-.3,1.7-.1.5.2.7.7.8a5.637,5.637,0,0,1,1.2.4,5.637,5.637,0,0,0,1.2.4,1.472,1.472,0,0,1,1.6.9c-.2.2-.6.3-.7.5-.2.9-.6.6-1.3.4a2.539,2.539,0,0,0-1.9.2c-.3.1-.4.8-.4,1.1,0,1,.2,2,.3,3,.1.9.5,1.7.6,2.7a12.512,12.512,0,0,0,.8,3.2c.2.8.8,2.7.9,3.4.3,1.9,1.5,3.5,1.9,5.4a10.657,10.657,0,0,0,1.2,2.7c.2.4.7.7,1,1a9.364,9.364,0,0,0,.4,1.6,12.294,12.294,0,0,0,1.4,2.5,9.172,9.172,0,0,1,1.3,2.1,10.4,10.4,0,0,0,2.4,3.1c.4.3,1.5,1.8,2.1,2.3s1.1,1,1.6,1.5,1,1.1,1.6.9a7.473,7.473,0,0,0,1.1,1.3c.5.4,1.1.8,1.6,1.2,1.2,1,1.2,1,2.5.1-.7,1.6.4,1.9,1.3,2.4s1.5,1.7,2.5.9c.4.4.6.9,1,1.1,1,.5,2,1,3,1.4,1.2.5,1.2.5,2-.5,0,1.3,0,1.3,1.3,1.7a10.374,10.374,0,0,1,1,.4c1.4.5,1.4.5,2.3-.7.1.7,0,1.4.9,1.5a18.1,18.1,0,0,0,2.3.3c.7,0,1.6-.3,2.2,0a6.547,6.547,0,0,0,3.1.1c.8-.1,1.6,0,1.6-1.4.5,1.6,1.7,1.3,2.7,1.3a5.276,5.276,0,0,0,1.2-.3c1.5-.3,1.5-.3,1.6-1.9,0-.1.1-.1.2-.2.1.1.3.2.3.3.3.6.7.9,1.4.6,1.2-.5,2.4-.9,3.6-1.3a3.128,3.128,0,0,0,1-.5,5.412,5.412,0,0,0,3.3-2.8,3.384,3.384,0,0,0,3.6-3c1.3.4,1.9-.8,2.7-1.4.8-.7,1.6-1.6.8-2.9h.3a7.017,7.017,0,0,0,.9.6l1.5-2.1c.5-.7,1-1.4.3-2.3.8.5,1.2.2,1.5-.5.4-.9.9-1.7,1.2-2.6a3.644,3.644,0,0,0,.2-1.4,4.943,4.943,0,0,0,.9-1.5c.2-.7.3-1.4.5-2.1.3-1.1.7-2.2.9-3.3.2-1.4.3-2.9.4-4.3.2-2.7.8-5.4.6-8.1a55.878,55.878,0,0,0-1.3-10c-.4-1.5-.7-3-1.1-4.5-.5-1.7-.6-3.6-2-4.9a.367.367,0,0,1-.1-.3,8.471,8.471,0,0,0-.4-1.7c-1.1-2.1-2.1-4.1-3.3-6.1-.4-.7-1-1.2-1.5-1.9-.2-.3-.3-.8-.5-1.1l-3.6-4.5a18.882,18.882,0,0,0-2-2,17.375,17.375,0,0,0-2-1.3c-.1-.1-.1-.5-.4-.8a8.635,8.635,0,0,0-1.4-1.3c-.6-.4-1.5-.5-1.8-1a6.276,6.276,0,0,0-2.5-2.1c-.7-.5-1.5-1.4-2.6-.6-.4-1.5-3.2-2.9-4.7-2.5-.6-1.3-4.1-2.4-5.4-1.6-.4-1.2-3.5-1.9-4.3-1.1a4.759,4.759,0,0,0-1.4-.5c-1.5,0-3.1.2-4.6.3-1.3.1-2.5.1-3.8.3a1.143,1.143,0,0,0-.8.7,3.371,3.371,0,0,0,.5,1.7c2,3,4.3,5.9,6.3,9,1.3,2,2.7,4,4,6.1a2.176,2.176,0,0,1,.4,1.7,2.059,2.059,0,0,1-2.5,1.2c-1.2-.2-2.4-.4-3-1.9a15.265,15.265,0,0,0-1.8-2.9c-1.5-2.2-3-4.3-4.5-6.5-1-1.5-2.1-3-3.2-4.4-.6-.8-1.5-1.3-1.9-2.3a1.008,1.008,0,0,0-.9-.3,19.986,19.986,0,0,0-2.1,1c-.5.3-.9.6-.6,1a5.9,5.9,0,0,0-1.4.2,21.408,21.408,0,0,0-1.9,1.3,1.17,1.17,0,0,0-.4,1.7c1.2,2.1,2.3,4.2,3.5,6.3a3.552,3.552,0,0,1,.4.9c.8,1.6,1.4,3.3,2.3,4.9,1.3,2.2,2.6,4.4,4,6.6a9.5,9.5,0,0,0,1.6,1.9,1.488,1.488,0,0,1,.1,2.2,30.63,30.63,0,0,1-2.9,2.1c-.2.1-.6-.1-.8-.2a8.637,8.637,0,0,0-1.6-1c-.8-.3-1.7-.5-2.5-.8-1.7-.7-3.4-1.5-5-2.2-3.3-1.4-6.6-2.8-9.9-4.3-1.2-.5-1.5-.5-1.8.8C248.1,376.7,248.2,377.2,248.2,377.6Zm-55.6-103c.1-.1.2-.1.3-.2a1.486,1.486,0,0,0-.2-.9,12.036,12.036,0,0,1-1.1-2.3c-.6-2.2-1-4.5-1.6-6.7a10.055,10.055,0,0,1,.9-7.4,15.221,15.221,0,0,1,5-5.4c3.6-2.7,7.1-5.4,10.6-8.1a1.819,1.819,0,0,0,.8-1.6c0-1.7.1-3.4.2-5a45.34,45.34,0,0,1,.5-5.3,11.981,11.981,0,0,1,1.3-3.6c1.3-2.2,3.5-3.4,5.8-4.3,2.9-1.1,6-2,8.9-3.1a59.258,59.258,0,0,0,6.8-3.1c2-1,3.8-2.3,5.8-3.2,3.5-1.6,7-3.1,10.5-4.6.9-.4,1-.5.4-1.3-.8-1.1-1.7-2.2-2.6-3.3a3.881,3.881,0,0,0-1.1-.6c-.6-.3-1.3-.4-1.6-.9-.6-.9-1-1.9-1.5-2.8a7.143,7.143,0,0,0-.8-1.5c-.6-.7-1.4-1.2-2-1.9-2.1-2.3-4.1-4.7-6.1-7a2.622,2.622,0,0,0-.9-.5,29.926,29.926,0,0,1-3.2-1c-1.7-.6-3.4-1.2-5.1-1.7a28.189,28.189,0,0,1-9.6-4.5,2.7,2.7,0,0,0-1.9-.6c-1.2.2-2.5.4-3.2,1.8a3.363,3.363,0,0,1-1.9,1.8,6.543,6.543,0,0,0-3.9,3,36.362,36.362,0,0,1-3.8,6.3c-.7,1.1-1.2,2.4-2.2,3.1a31.015,31.015,0,0,1-5,2.9c-1.1.6-2.5.9-2.9,2.3a2.416,2.416,0,0,1-1.4,1.4c-1.7.8-3.3,1.7-5,2.6a3.555,3.555,0,0,0-1.7,1.3c-.1.3-.8.4-1.2.4a5.7,5.7,0,0,1-1.3-.1c-1.1.1-2.1.2-3.2.4a25.125,25.125,0,0,0-2.7.4,5.834,5.834,0,0,1-3.2.2,4.284,4.284,0,0,0-3.6.7c-.6.5-1.2,1.1-1.8,1.6-3,2.5-5.9,5-8.9,7.5-.6.5-.6.9-.1,1.3,1.2,1.1,2.5,2.1,3.7,3.2a5.241,5.241,0,0,1,1,1.1c.5.7,1,1.6,1.6,2.3A8.447,8.447,0,0,1,162,231a1.277,1.277,0,0,1-.4,1.1c-.5.7-1.2,1.2-1.7,1.9-.5.6-.9,1.4-1.4,2a3.684,3.684,0,0,1-3.7,1.1c-.8-.1-1.2.3-1.2,1.1v.7a3.14,3.14,0,0,1-1.9,2.4c-.3.1-.7.3-.8.6-.1.2.2.6.4.8,1.4,1.2,2.8,2.3,4.3,3.4,1,.8,1.9,1.5,2.9,2.3,1.4,1.1,2.7,2.1,4.1,3.2,1.5,1.1,3,2.2,4.4,3.4,1.7,1.4,3.4,2.8,5.2,4.1,3.6,2.7,7.2,5.4,10.7,8.1,2.4,1.8,4.7,3.7,7.1,5.5C191,273.4,191.8,274,192.6,274.6Zm-40.5-19.2-.2.2,1.5,2.4c1.1,1.8,2.3,3.7,3.4,5.5,1,1.6,2,3.1,3,4.7,1.3,2.1,2.6,4.2,3.9,6.2,1.2,1.8,2.4,3.6,3.6,5.5,1.4,2.2,2.8,4.5,4.2,6.7,2.2,3.5,4.4,6.9,6.7,10.3,1.4,2.1,2.7,4.2,4,6.3,2,3.1,4.1,6.2,6,9.3.7,1.2,1.4,2,3,1.7,1-.2,1.2-.3.9-1.3a3.188,3.188,0,0,1,0-2.7,2.016,2.016,0,0,1,.9-.7,1.332,1.332,0,0,1,.9.6,3.582,3.582,0,0,1,.4,1.1,3.552,3.552,0,0,0,.4.9,12.128,12.128,0,0,0,.5-1.4,9.165,9.165,0,0,1,1.2-3.4c1-1.4,2.4-2.6,3.6-4,.8-.9,1.5-2,2.3-2.9,0-.1.1-.2.1-.3,0-1.1.1-2.1,0-3.2,0-.7-.3-1.3-.3-2a2.823,2.823,0,0,0-1.3-2.6c-.5-.4-1.1-.8-1.6-1.2-2.5-1.9-4.9-3.7-7.4-5.6s-5-3.9-7.5-5.8c-.7-.5-.9-.5-1.5.2-.3.4-.8.8-1.1,1.2-.7-.4-.6-.8-.4-1.3a5.171,5.171,0,0,0,.6-1.3.959.959,0,0,0-.2-.9c-2-1.6-4.1-3.2-6.2-4.7-1.8-1.3-3.5-2.6-5.3-4-2.1-1.6-4.1-3.2-6.2-4.8l-9-6.9A9.192,9.192,0,0,1,152.1,255.4Zm78.2,88.2c-.1-.2-.1-.2-.1-.3a.349.349,0,0,1-.2-.1c-1.8-.2-2.7-1.4-3.4-2.9-.4-.8-.7-.9-1.2-.2-1.4,1.8-2.7,3.7-4.1,5.6a.96.96,0,0,0,.6,1.6,2.766,2.766,0,0,1,2,1.3,5.582,5.582,0,0,0,.8.5,5.8,5.8,0,0,1,1.2,1,1.674,1.674,0,0,0,1.9.8c.2,0,.3-.4.4-.6a4.5,4.5,0,0,1,.6-1.2c1-.7,1-.8.5-1.9-.2-.3-.4-.7-.6-1a1.559,1.559,0,0,1,1-2.5A1.758,1.758,0,0,0,230.3,343.6Zm21.8,24.6c.4.7.7,1.6,1.8,1.6a1.007,1.007,0,0,1,.3.1,7.252,7.252,0,0,0,2.9,2.3l.3.3c.4.3.7.5,1.1.8.2.2.6.2.7.4.9,1.3,2.5,1.4,3.8,2.1a.663.663,0,0,0,.7-.2c.1-.1,0-.4-.1-.6l-4.5-8.4a.934.934,0,0,0-1.4-.5C256,366.8,253.9,367.1,252.1,368.2Zm-33.2-33.5v1.4c0,.2.2.4.4.7.2-.1.5-.2.6-.4,1.4-1.9,2.7-3.8,4.1-5.6a1.2,1.2,0,0,0,0-1.5c-.9-1.2-1.8-2.4-2.6-3.6-1-1.3-1-1.3-2.4-.5a2.217,2.217,0,0,0-1.3,2.2,1.344,1.344,0,0,1-.2.9c-.4.7-.4,1.1.3,1.6a4,4,0,0,1,1.3,1.8A15.138,15.138,0,0,0,218.9,334.7Zm37.6,4a4.879,4.879,0,0,0-.7.3c-1,.5-2,1-3.1,1.5-.9.4-1,.6-.6,1.6.4.9.9,1.8,1.3,2.8.5,1,.7,1.1,1.6.5,1.3-.8,2.6-1.6,4-2.4.5-.3.6-.5.2-1-.8-1-1.6-2-2.4-2.9C256.8,338.9,256.6,338.8,256.5,338.7Zm-64.2,18.1c.1.6.2,1.6.4,2.6a.831.831,0,0,0,1.1.8c.7-.1,1.1-.6,1-1.5a23.634,23.634,0,0,1,.2-4.6,25.989,25.989,0,0,1,1.3-3.6c.1-.3.2-.8,0-1a1.369,1.369,0,0,0-2.3.3A13.95,13.95,0,0,0,192.3,356.8ZM206,372c.7-.4,1.7-.9,2.6-1.5,0,0-.1-.5-.3-.6a1.379,1.379,0,0,0-.9,0,9.218,9.218,0,0,1-4.7-.9,25.432,25.432,0,0,1-2.8-1.6,1.22,1.22,0,0,0-1.7.2,1.045,1.045,0,0,0,.4,1.5c.5.3,1,.7,1.6,1.1A15.759,15.759,0,0,0,206,372Zm46.9-37.6c-.1-.2-.1-.3-.2-.3-1.1-1.2-2.1-2.5-3.2-3.7-.1-.1-.6-.2-.7-.1-.3.4-.6.9-.9,1.4,0,0,.2.2.3.2.9.1,1.3.8,1.8,1.4.4.5.8,1.1,1.2,1.6a.94.94,0,0,0,.9.1A2.407,2.407,0,0,0,252.9,334.4Zm-52.1,28.9c-.5-.4-.9-.9-1.3-.9-.8-.1-1.3-.3-1.3-1.3,0-.3-.5-.7-.8-1-.1-.1-.5.1-.5.2a4.033,4.033,0,0,0,0,1.1,22.013,22.013,0,0,0,1.5,2.6c.3.4.7.9,1.3.6C200.2,364.4,200.4,363.9,200.8,363.3Zm11.8,2.9c-1-.3-1.8-.6-2.7-.8a1.113,1.113,0,0,0-1,.3,3.219,3.219,0,0,0-.1,1.7,1.149,1.149,0,0,0,.9.6A5.079,5.079,0,0,0,212.6,366.2Zm-9.4-.5c0,1.1.4,1.6,1.3,1.6.8,0,1.2-.6,1.2-1.7,0-.9-.6-1.6-1.3-1.5C203.6,364,203.2,364.6,203.2,365.7ZM75.5,315.8a7.253,7.253,0,0,1-1.5-1.1c-.6-.9-.7-.9-1.5-.1a4.621,4.621,0,0,1-.7.7,7.457,7.457,0,0,0-.7,1.2l.2.2C72.6,316.4,73.9,316.1,75.5,315.8ZM223.8,351c-.1,0-.3.1-.3.2a5.663,5.663,0,0,0-.3,1.8c0,.1.5.4.7.3a7.74,7.74,0,0,0,1.6-.7c.6-.3.6-.8,0-1.1A4.8,4.8,0,0,0,223.8,351Zm-25.9,3a9.015,9.015,0,0,0-1,.9,1.374,1.374,0,0,0,.4,1.2c.2.2.8-.2,1.2-.3a.758.758,0,0,0,.4-.2l.7-.7-.7-.7A1.977,1.977,0,0,1,197.9,354ZM186.4,95.8a9.439,9.439,0,0,1-.3-.9,3.933,3.933,0,0,0-.6.2,2.052,2.052,0,0,0-.1,2.9c.3.3.6.3.7-.1A21.115,21.115,0,0,1,186.4,95.8Zm1,242.4c-.1,0-.3.2-.5.3a4.348,4.348,0,0,0,.7.4c.8.3,1.7.4,2.6.7.5.1.9.2,1-.3,0-.2-.4-.7-.7-.7C189.4,338.4,188.5,338.4,187.4,338.2Zm-3.3-3.4c-1.2-.3-2.2-.9-3.4-.3A2.712,2.712,0,0,0,184.1,334.8Zm-3.8,2.2c-.6-.8-1.1-1.1-1.8-1-.4.1-.7.5-1,.8.1.1.1.2.2.4A19.669,19.669,0,0,1,180.3,337ZM194,312.1c-.3-.5-.6-1.2-.8-1.2-.7,0-.5.7-.5,1.2,0,.3.4.6.6.9A5.5,5.5,0,0,1,194,312.1Zm-47.2-96.5c.8-.1,2.2-2,2.1-3C148.2,213.5,147.6,214.5,146.8,215.6Zm54,135.8c-.1-.9-.7-.8-1.2-.9-.2-.1-.5.1-.7.2.2.3.3.7.5.7A6.554,6.554,0,0,0,200.8,351.4Zm22.8,3.8a5.072,5.072,0,0,0-.9-.2,1.275,1.275,0,0,0-.7.5c-.1.2.1.5.1.8a3.553,3.553,0,0,0,.9-.4C223.2,355.8,223.3,355.5,223.6,355.2ZM185.9,100.7c.2-1.8-.3-2.4-1.2-2C185.1,99.3,185.5,100,185.9,100.7Zm-35,109.8c-.1-.1-.3-.2-.4-.3-.4.7-.9,1.4-1.3,2,.1.1.2.1.3.2A23.07,23.07,0,0,1,150.9,210.5Z" fill="#ffe886"/>
      </g>
    </g>
  </g>
</svg>
